<svg width="33" height="32" viewBox="0 0 33 32" fill="none" xmlns="http://www.w3.org/2000/svg">
<path d="M9.1695 32C8.89716 32 8.57943 31.9539 8.30709 31.8156C7.58085 31.4928 7.12695 30.755 7.12695 29.9251V25.1758C3.31418 24.3919 0.5 20.8876 0.5 16.8761V8.48415C0.5 3.82709 4.22199 0 8.85177 0H24.1482C28.7326 0 32.5 3.78098 32.5 8.48415V16.9222C32.5 21.5793 28.778 25.4063 24.1482 25.4063H17.839C17.6121 25.4063 17.3397 25.4986 17.1582 25.6369L10.4858 31.4928C10.1227 31.8617 9.66879 32 9.1695 32ZM8.85177 2.30548C5.49291 2.30548 2.7695 5.07205 2.7695 8.48415V16.9222C2.7695 20.0115 5.03901 22.6398 8.03475 23.0086C8.80638 23.1009 9.39645 23.7925 9.39645 24.5764V29.3718L15.6603 23.8386C16.2504 23.3314 17.022 23.0086 17.7936 23.0086H24.1028C27.4617 23.0086 30.1851 20.2421 30.1851 16.83V8.48415C30.1851 5.07205 27.4617 2.30548 24.1028 2.30548H8.85177Z" fill="#65676B"/>
</svg>
