<svg width="32" height="32" viewBox="0 0 32 32" fill="none" xmlns="http://www.w3.org/2000/svg">
<path d="M32 18.552C32 17.4868 31.5145 16.466 30.7641 15.8003C31.2938 15.0902 31.5145 14.2025 31.4262 13.3148C31.2497 11.4508 29.5724 9.94175 27.6303 9.94175H21.8924L22.2455 7.19001C22.3338 6.34674 22.3338 5.63662 22.1572 4.92649C21.4952 2.04161 18.9352 0 15.9779 0C15.3159 0 14.6538 0.266297 14.1683 0.754508C13.6828 1.24272 13.4179 1.86408 13.4179 2.52982V6.16921C13.4179 7.76699 12.9766 9.27601 12.1379 10.6519L10.5931 13.1373C10.3724 13.4924 10.0634 13.7587 9.71035 13.9362C9.40138 12.9598 8.51862 12.2497 7.45931 12.2497H2.38345C1.05931 12.2497 0 13.3148 0 14.6463V29.6033C0 30.9348 1.05931 32 2.38345 32H7.54759C8.87172 32 9.93104 30.9348 9.93104 29.6033V29.2483C11.0786 30.2691 12.5793 30.8904 14.2124 30.8904H25.4235C26.4386 30.8904 27.4538 30.4466 28.16 29.7365C28.8662 29.0264 29.2193 28.0943 29.1752 27.1179C29.1752 26.7628 29.131 26.4522 28.9986 26.0971C30.1903 25.4757 30.9848 24.233 30.9848 22.8128C30.9848 22.3246 30.8966 21.8363 30.72 21.3925C31.5145 20.638 32 19.6172 32 18.552ZM7.68 29.5589C7.68 29.6477 7.59172 29.7365 7.50345 29.7365H2.38345C2.29517 29.7365 2.2069 29.6477 2.2069 29.5589V14.6019C2.2069 14.5132 2.29517 14.4244 2.38345 14.4244H7.54759C7.63586 14.4244 7.72414 14.5132 7.72414 14.6019V29.5589H7.68ZM28.9545 19.8835C28.6014 20.061 28.3365 20.3717 28.2483 20.7712C28.16 21.1706 28.2483 21.57 28.5131 21.8807C28.7338 22.147 28.8221 22.4577 28.8221 22.7684C28.8221 23.4785 28.2924 24.0999 27.5862 24.233C27.1448 24.3218 26.7476 24.5881 26.571 25.0319C26.3945 25.4757 26.4386 25.9196 26.7034 26.319C26.88 26.5409 26.9683 26.8516 26.9683 27.1623C26.9683 27.5173 26.8359 27.9168 26.571 28.1831C26.2621 28.4938 25.8207 28.6713 25.3793 28.6713H14.1683C11.829 28.6713 9.8869 26.7628 9.8869 24.3662V16.1997C10.9903 15.9334 11.9172 15.2677 12.5352 14.2913L14.08 11.8058C15.1393 10.1193 15.7131 8.16644 15.7131 6.16921V2.52982C15.7131 2.44105 15.7572 2.35229 15.8014 2.30791C15.8455 2.26352 15.9338 2.21914 16.0221 2.21914C17.9641 2.21914 19.5972 3.55062 20.0386 5.4147C20.1269 5.81415 20.171 6.30236 20.0828 6.87933L19.6855 9.98613C19.5972 10.5187 19.7738 11.0513 20.1269 11.4951C20.48 11.8946 21.0097 12.1609 21.5393 12.1609H27.6303C28.3807 12.1609 29.131 12.7822 29.2193 13.4924C29.2635 14.025 28.9986 14.5576 28.5572 14.8682C28.16 15.1345 27.9393 15.6227 27.9834 16.111C28.0276 16.5992 28.3366 16.9986 28.8221 17.1761C29.3959 17.3981 29.749 17.9307 29.749 18.552C29.7931 19.129 29.4841 19.6172 28.9545 19.8835Z" fill="#65676B"/>
</svg>
