<svg width="32" height="32" viewBox="0 0 32 32" fill="none" xmlns="http://www.w3.org/2000/svg">
<path d="M1.65668 30.8243C1.56948 30.8243 1.43869 30.8243 1.3515 30.7807C0.697548 30.6499 0.261581 30.1703 0.174387 29.5164C0.043597 28.6444 0 27.7725 0 26.857C0 17.5273 6.88828 9.54906 16.0872 8.24116V3.22753C16.0872 2.48639 16.5232 1.78884 17.2643 1.48366C17.9619 1.17849 18.7902 1.35287 19.3134 1.87603L31.346 13.9087C31.782 14.3447 32 14.8679 32 15.4782C32 16.0886 31.782 16.6117 31.346 17.0477L19.2698 29.0804C18.7466 29.6036 17.9183 29.7779 17.2207 29.4728C16.5232 29.1676 16.0436 28.5136 16.0436 27.7289V22.1485C10.6376 22.4973 5.75477 25.4619 2.92098 30.0831C2.6594 30.5627 2.17984 30.8243 1.65668 30.8243ZM18.267 3.96868V8.45914C18.267 9.41827 17.5259 10.2466 16.5668 10.3774C8.32698 11.4673 2.13624 18.5736 2.13624 26.857C2.13624 27.0313 2.13624 27.2057 2.13624 27.3801C5.49319 22.9333 10.6376 20.1867 16.2616 19.9251C16.7847 19.8815 17.2643 20.0995 17.6567 20.4482C18.049 20.797 18.267 21.3202 18.267 21.8433V27.0313L29.7766 15.5218V15.4782L18.267 3.96868Z" fill="#65676B"/>
</svg>
