<svg width="25" height="24" viewBox="0 0 25 24" fill="none" xmlns="http://www.w3.org/2000/svg">
<path d="M3.5 12C3.5 16.9706 7.52944 21 12.5 21C13.6971 21 14.8397 20.7663 15.8845 20.3419C16.0845 20.2607 16.1845 20.2201 16.2653 20.202C16.3443 20.1843 16.4028 20.1778 16.4839 20.1778C16.5667 20.1778 16.6569 20.1928 16.8373 20.2229L20.3952 20.8159C20.7678 20.878 20.9541 20.909 21.0888 20.8512C21.2067 20.8007 21.3007 20.7067 21.3512 20.5888C21.409 20.4541 21.378 20.2678 21.3159 19.8952L20.7229 16.3374C20.6928 16.1569 20.6778 16.0667 20.6778 15.9839C20.6778 15.9028 20.6843 15.8443 20.702 15.7653C20.7201 15.6845 20.7607 15.5845 20.8419 15.3845C21.2663 14.3397 21.5 13.1971 21.5 12C21.5 7.02944 17.4706 3 12.5 3C7.52944 3 3.5 7.02944 3.5 12Z" stroke="#5D5D5D" stroke-width="2" stroke-linecap="round" stroke-linejoin="round"/>
</svg>
