<svg width="25" height="24" viewBox="0 0 25 24" fill="none" xmlns="http://www.w3.org/2000/svg">
<path d="M18.6406 19.5631L18.6406 19.5631L18.6361 19.5741C18.4976 19.9154 18.1978 20.125 17.8438 20.125H9.78125C9.27281 20.125 8.875 19.7268 8.875 19.2375V10.2375C8.875 9.97527 8.97802 9.74481 9.13837 9.58186C9.13852 9.5817 9.13868 9.58154 9.13884 9.58137L14.4251 4.24062L14.7463 4.56184C14.8238 4.64191 14.8738 4.74872 14.8817 4.86579L14.8642 5.04132L14.0315 8.8113L13.7966 9.875H14.8859H20.4734C20.6185 9.875 20.8327 9.96127 21.0433 10.223C21.2524 10.4829 21.3703 10.8156 21.3703 11.0906V12.9C21.3703 13.0205 21.3502 13.1263 21.3112 13.2304L18.6406 19.5631ZM3.625 11.375H4.875V20.125H3.625V11.375Z" stroke="#5D5D5D" stroke-width="1.75"/>
</svg>
