<svg width="25" height="24" viewBox="0 0 25 24" fill="none" xmlns="http://www.w3.org/2000/svg">
<path d="M21.2914 12.6072C21.5355 12.398 21.6575 12.2933 21.7023 12.1688C21.7415 12.0596 21.7415 11.94 21.7023 11.8308C21.6575 11.7063 21.5355 11.6016 21.2914 11.3924L12.8206 4.13178C12.4004 3.77158 12.1903 3.59148 12.0124 3.58707C11.8578 3.58323 11.7101 3.65115 11.6124 3.77103C11.5 3.90897 11.5 4.18571 11.5 4.73918V9.03444C9.36532 9.40789 7.41159 10.4896 5.95971 12.1137C4.37682 13.8843 3.50123 16.1757 3.5 18.5508V19.1628C4.54934 17.8987 5.85951 16.8763 7.34076 16.1657C8.6467 15.5392 10.0584 15.1681 11.5 15.0703V19.2604C11.5 19.8139 11.5 20.0906 11.6124 20.2286C11.7101 20.3485 11.8578 20.4164 12.0124 20.4125C12.1903 20.4081 12.4004 20.228 12.8206 19.8678L21.2914 12.6072Z" stroke="#5D5D5D" stroke-width="2" stroke-linecap="round" stroke-linejoin="round"/>
</svg>
