<svg width="49" height="48" viewBox="0 0 49 48" fill="none" xmlns="http://www.w3.org/2000/svg">
<path fill-rule="evenodd" clip-rule="evenodd" d="M14.696 6.30079C16.9972 5.71687 19.4264 5.98991 21.5364 7.06072L22.4059 7.50202C23.4559 8.03487 24.3788 8.76317 25.1332 9.63633C25.2388 9.75859 25.4282 9.75859 25.5338 9.63633C26.2882 8.76317 27.2111 8.03487 28.261 7.50202L29.1306 7.06072C31.2406 5.98991 33.6698 5.71687 35.971 6.30079C38.1824 6.86195 40.1126 8.17257 41.4523 9.98562L41.9404 10.6461C43.4989 12.7553 44.3335 15.3083 44.3335 17.9219V18.6596C44.3335 19.8291 44.1922 20.9948 43.9124 22.1306L43.7422 22.8215C43.102 25.4208 41.9551 27.8693 40.3644 30.0221L39.3729 31.3639C38.5757 32.4427 37.7035 33.4635 36.7626 34.4185L35.757 35.4392C33.3442 37.8882 30.5543 39.9303 27.4928 41.484C26.137 42.172 24.5299 42.172 23.1742 41.484C20.1127 39.9303 17.3227 37.8882 14.9099 35.4392L13.9043 34.4185C12.9635 33.4635 12.0913 32.4427 11.2941 31.3639L10.3026 30.0221C8.7119 27.8693 7.56497 25.4208 6.92475 22.8215L6.75457 22.1306C6.47479 20.9948 6.3335 19.8291 6.3335 18.6596V17.9219C6.3335 15.3083 7.16807 12.7553 8.72661 10.6461L9.21466 9.98562C10.5544 8.17257 12.4846 6.86195 14.696 6.30079ZM20.0656 9.66183C18.6455 8.94113 17.0296 8.76348 15.5019 9.15114C14.0294 9.52477 12.705 10.4075 11.7663 11.6779L11.2783 12.3383C10.0955 13.939 9.44825 15.8982 9.44825 17.9219V18.6596C9.44825 19.6043 9.56241 20.5449 9.78784 21.4601L9.95801 22.151C10.5098 24.3913 11.4961 26.4917 12.8543 28.3298L13.8458 29.6717C14.5602 30.6385 15.3408 31.5519 16.1814 32.4051L17.187 33.4258C19.3719 35.6434 21.8908 37.4851 24.645 38.8829C25.082 39.1046 25.585 39.1046 26.022 38.8829C28.7762 37.4851 31.2951 35.6434 33.48 33.4258L34.4856 32.4051C35.3262 31.5519 36.1068 30.6385 36.8212 29.6717L37.8127 28.3298C39.1709 26.4917 40.1572 24.3913 40.709 22.151L40.8792 21.4601C41.1046 20.5449 41.2187 19.6043 41.2187 18.6596V17.9219C41.2187 15.8982 40.5715 13.939 39.3887 12.3383L38.9007 11.6779C37.962 10.4075 36.6376 9.52477 35.1651 9.15114C33.6374 8.76348 32.0215 8.94113 30.6014 9.66183L29.7318 10.1031C28.6073 10.6738 27.6749 11.6104 27.0936 12.7903C26.0555 14.8977 24.6048 14.8842 23.5734 12.7903C22.9921 11.6104 22.0597 10.6738 20.9351 10.1031L20.0656 9.66183Z" fill="#E5397F"/>
<path d="M12.3332 10.0001C7.53322 13.2001 8.99989 22.0001 10.3332 26.0001C11.1332 31.6001 20.6666 37.6668 25.3332 40.0001C29.3332 40 37.0002 31.3333 40.3335 27C44.3335 19 42.0002 13 40.3335 10.9999C36.3335 6.99993 28.6668 10.6667 25.3335 13.0001C22.9335 9.00011 15.6666 9.33344 12.3332 10.0001Z" fill="#E5397F"/>
<path fill-rule="evenodd" clip-rule="evenodd" d="M32.8988 10.8862C30.2606 11.5458 27.6552 12.9617 26.079 14.0651L24.9364 14.865L24.2188 13.669C23.3323 12.1916 21.4298 11.3569 19.0138 11.039C16.7821 10.7454 14.4228 10.9385 12.8519 11.2245C11.1382 12.502 10.3944 14.8694 10.3329 17.7281C10.2702 20.6427 10.9339 23.6913 11.5665 25.589L11.6036 25.7002L11.6202 25.8163C11.7757 26.9052 12.3777 28.1247 13.3858 29.4257C14.3851 30.7153 15.7188 32.0022 17.2063 33.2188C20.0491 35.5441 23.3371 37.5188 25.6024 38.6793C26.203 38.5923 27.0673 38.2275 28.1796 37.4933C29.4223 36.6729 30.7968 35.5123 32.1851 34.1853C34.9153 31.5756 37.5806 28.4365 39.226 26.3073C42.892 18.8786 40.6932 13.5127 39.3718 11.8773C37.8601 10.4048 35.5537 10.2224 32.8988 10.8862ZM32.2682 8.36382C35.255 7.61708 38.7636 7.59156 41.2527 10.0807L41.2944 10.1224L41.3322 10.1677C43.3425 12.5801 45.718 19.1379 41.4963 27.5814L41.4403 27.6934L41.3639 27.7926C39.6691 29.9959 36.8752 33.2989 33.9816 36.0648C32.5366 37.446 31.036 38.723 29.612 39.6631C28.2364 40.5712 26.735 41.3001 25.3333 41.3001L25.0264 41.3001L24.7518 41.1629C22.3529 39.9634 18.7172 37.8136 15.5602 35.2314C13.981 33.9397 12.4897 32.5141 11.3306 31.0182C10.2073 29.5686 9.33249 27.9716 9.0645 26.3039C8.3746 24.196 7.66406 20.9022 7.73353 17.6722C7.80301 14.441 8.66993 10.8799 11.6121 8.91845L11.8261 8.77579L12.0783 8.72536C13.8496 8.3711 16.6466 8.10513 19.353 8.46122C21.5859 8.75502 24.0175 9.50993 25.6334 11.2484C27.3841 10.1653 29.781 8.98565 32.2682 8.36382Z" fill="#E5397F"/>
</svg>
