<svg width="48" height="48" viewBox="0 0 48 48" fill="none" xmlns="http://www.w3.org/2000/svg">
<path fill-rule="evenodd" clip-rule="evenodd" d="M21.3333 32.2594C22.0697 32.2594 22.6667 32.8766 22.6667 33.6379V39.0358C29.9967 34.6094 34.4068 31.478 37.0664 28.744C38.6099 27.1574 39.4589 25.8044 39.952 24.5142C40.4478 23.2169 40.6667 21.7675 40.6667 19.8528C40.6667 13.0009 35.2941 7.44627 28.6667 7.44627H19.3333C12.7059 7.44627 7.33333 13.0009 7.33333 19.8528C7.33333 26.7048 12.7059 32.2594 19.3333 32.2594H21.3333ZM22.6667 43.0196C40.4376 32.4461 44 28.1153 44 19.8528C44 11.0976 37.135 4 28.6667 4H19.3333C10.865 4 4 11.0976 4 19.8528C4 28.6081 10.865 35.7056 19.3333 35.7056V42.6219C19.3333 43.6765 20.4319 44.3401 21.3181 43.818C21.7765 43.5479 22.2259 43.2818 22.6667 43.0196Z" fill="#576470"/>
</svg>
