<svg width="49" height="48" viewBox="0 0 49 48" fill="none" xmlns="http://www.w3.org/2000/svg">
<path d="M10.8399 10.3159C10.3811 9.89468 9.63723 9.89469 9.17843 10.3159L3.09663 15.9002C2.52313 16.4267 2.52313 17.2805 3.09663 17.8071C3.67012 18.3336 4.59995 18.3336 5.17344 17.8071L8.54063 14.7154V30.8768C8.54063 34.6002 11.828 37.6187 15.8833 37.6187H25.2819C26.0929 37.6187 26.7504 37.015 26.7504 36.2703C26.7504 35.5256 26.0929 34.9219 25.2819 34.9219H15.8833C13.4501 34.9219 11.4777 33.1109 11.4777 30.8768V14.7154L14.8449 17.8071C15.4184 18.3336 16.3482 18.3336 16.9217 17.8071C17.4952 17.2805 17.4952 16.4267 16.9217 15.9002L10.8399 10.3159Z" fill="#576470"/>
<path d="M36.4931 37.6841C36.9519 38.1053 37.6958 38.1053 38.1546 37.6841L44.2364 32.0998C44.8099 31.5733 44.8099 30.7195 44.2364 30.1929C43.6629 29.6664 42.7331 29.6664 42.1596 30.1929L38.7924 33.2846V17.1232C38.7924 13.3998 35.505 10.3813 31.4497 10.3813H22.0511C21.2401 10.3813 20.5826 10.985 20.5826 11.7297C20.5826 12.4744 21.2401 13.0781 22.0511 13.0781H31.4497C33.8829 13.0781 35.8553 14.8891 35.8553 17.1232V33.2846L32.4881 30.1929C31.9146 29.6664 30.9848 29.6664 30.4113 30.1929C29.8378 30.7195 29.8378 31.5733 30.4113 32.0998L36.4931 37.6841Z" fill="#576470"/>
</svg>
