<svg width="48" height="48" viewBox="0 0 48 48" fill="none" xmlns="http://www.w3.org/2000/svg">
<path fill-rule="evenodd" clip-rule="evenodd" d="M23.1654 6.35618C23.6263 5.88127 24.3737 5.88127 24.8346 6.35618L33.3056 15.0836C33.8818 15.6773 33.8818 16.6397 33.3056 17.2334C32.7294 17.827 31.7952 17.827 31.219 17.2334L25.4754 11.3158V29.5353C25.4754 30.3748 24.8148 31.0554 24 31.0554C23.1852 31.0554 22.5246 30.3748 22.5246 29.5353V11.3158L16.781 17.2334C16.2048 17.827 15.2706 17.827 14.6944 17.2334C14.1182 16.6397 14.1182 15.6773 14.6944 15.0836L23.1654 6.35618ZM7.47541 25.5831C8.29026 25.5831 8.95082 26.2636 8.95082 27.1031V36.8317C8.95082 38.007 9.87561 38.9598 11.0164 38.9598H36.9836C38.1244 38.9598 39.0492 38.007 39.0492 36.8317V27.1031C39.0492 26.2636 39.7097 25.5831 40.5246 25.5831C41.3394 25.5831 42 26.2636 42 27.1031V36.8317C42 39.6861 39.7541 42 36.9836 42H11.0164C8.24592 42 6 39.6861 6 36.8317V27.1031C6 26.2636 6.66056 25.5831 7.47541 25.5831Z" fill="#576470"/>
</svg>
