<svg width="56" height="56" viewBox="0 0 56 56" fill="none" xmlns="http://www.w3.org/2000/svg">
<path d="M17.8179 19.9109H38.181V21.9331H17.8179V19.9109ZM17.8179 27.9998H32.0721V25.9776H17.8179V27.9998ZM50.3988 23.9554C50.4291 26.1696 49.9188 28.3581 48.9117 30.3337C47.9045 32.3094 46.4305 34.0134 44.6157 35.3L27.9995 46.1998V38.1109H19.8542C16.0738 38.1109 12.4482 36.6195 9.77504 33.9648C7.10187 31.3102 5.6001 27.7096 5.6001 23.9554C5.6001 20.2011 7.10187 16.6006 9.77504 13.9459C12.4482 11.2912 16.0738 9.7998 19.8542 9.7998H36.1447C39.9251 9.7998 43.5507 11.2912 46.2239 13.9459C48.8971 16.6006 50.3988 20.2011 50.3988 23.9554ZM46.3262 23.9554C46.3262 21.2737 45.2535 18.7019 43.3441 16.8057C41.4347 14.9095 38.845 13.8442 36.1447 13.8442H19.8542C17.1539 13.8442 14.5642 14.9095 12.6548 16.8057C10.7454 18.7019 9.67271 21.2737 9.67271 23.9554C9.67271 26.637 10.7454 29.2088 12.6548 31.105C14.5642 33.0012 17.1539 34.0665 19.8542 34.0665H32.0721V38.6771L42.2536 32.0443C43.5438 31.1267 44.5891 29.9104 45.2988 28.5008C46.0085 27.0912 46.3612 25.5309 46.3262 23.9554Z" fill="#5E5E5E"/>
</svg>
