<svg width="57" height="56" viewBox="0 0 57 56" fill="none" xmlns="http://www.w3.org/2000/svg">
<path d="M44.9227 26.2668L36.8559 18.1861C35.2703 16.5956 34.0765 14.6567 33.3692 12.5235L32.3583 9.48547C31.9788 8.35531 31.2552 7.37271 30.2894 6.6758C29.3235 5.97889 28.1639 5.60271 26.9736 5.60014C26.2285 5.59742 25.4902 5.74173 24.8008 6.02483C24.1114 6.30794 23.4845 6.72429 22.9557 7.25012C22.427 7.77595 22.0068 8.40095 21.7191 9.08945C21.4315 9.77795 21.2821 10.5165 21.2794 11.2628V13.5775C21.284 15.5786 21.6043 17.5665 22.2284 19.4675L23.1156 22.1335H13.2745C12.1145 22.1335 11.002 22.5951 10.1817 23.4167C9.36149 24.2384 8.90068 25.3528 8.90068 26.5148C8.90353 27.2289 9.07739 27.932 9.40767 28.5649C9.73794 29.1978 10.215 29.7421 10.7988 30.1521C10.2145 30.5519 9.73623 31.0882 9.4055 31.7148C9.07477 32.3414 8.90149 33.0393 8.90068 33.7481C8.88429 34.6213 9.12633 35.4798 9.59629 36.2153C10.0662 36.9509 10.7431 37.5306 11.5415 37.8814C11.1706 38.5074 10.9713 39.2203 10.9638 39.9481C10.962 41.0684 11.3887 42.1468 12.1561 42.9617C12.9236 43.7766 13.9735 44.266 15.09 44.3294V44.6188C15.09 45.7808 15.5508 46.8952 16.3711 47.7168C17.1913 48.5385 18.3038 49.0001 19.4638 49.0001H34.9166C37.479 48.9978 40.0065 48.4037 42.3025 47.2641L42.9421 46.9334H48.0999V26.2668H44.9227ZM43.9737 42.8001H41.9105L40.4045 43.5648C38.6773 44.4155 36.7793 44.8607 34.8547 44.8668H20.7017C20.2413 44.8851 19.7881 44.7486 19.4142 44.4789C19.0403 44.2092 18.7672 43.8219 18.6386 43.3788L18.1228 41.5808L16.3692 40.7334C15.9653 40.5686 15.6239 40.2798 15.3941 39.9085C15.1642 39.5372 15.0578 39.1025 15.09 38.6668L15.4408 36.6001L13.8728 35.0708C13.5317 34.737 13.3165 34.2952 13.2638 33.8205C13.2111 33.3457 13.3243 32.8674 13.584 32.4668L14.9456 30.2141L13.4395 27.9408C13.3534 27.8359 13.2892 27.7147 13.2507 27.5844C13.2123 27.4541 13.2004 27.3174 13.2158 27.1824C13.2312 27.0474 13.2736 26.9169 13.3404 26.7987C13.4071 26.6804 13.497 26.5768 13.6046 26.4941C13.8005 26.3307 14.0517 26.2493 14.306 26.2668H28.851L26.1483 18.1655C25.6555 16.6862 25.4047 15.1369 25.4056 13.5775V11.2835C25.4161 10.8757 25.5824 10.4875 25.8704 10.199C26.1583 9.91059 26.5459 9.74393 26.953 9.73347C27.2765 9.73371 27.5918 9.83552 27.8545 10.0246C28.1173 10.2136 28.3142 10.4804 28.4178 10.7875L29.5319 13.8668C30.422 16.5843 31.9258 19.0595 33.9263 21.1001L43.2103 30.4001H43.9737V42.8001Z" fill="#5E5E5E"/>
</svg>
