<svg width="56" height="56" viewBox="0 0 56 56" fill="none" xmlns="http://www.w3.org/2000/svg">
<path fill-rule="evenodd" clip-rule="evenodd" d="M37.7314 24.2664L44.8 13.5331L37.7314 2.7998H34.0667L40.2 11.9998H21.8001C19.3759 11.9997 17.0497 12.9563 15.327 14.6618C13.6043 16.3673 12.6243 18.6837 12.6001 21.1078C12.6 22.0633 12.7395 23.0138 13.0141 23.9291L14.1334 27.3331H17.3841L15.9581 23.1011C15.7616 22.4866 15.6633 21.8449 15.6668 21.1998V20.9544C15.6827 20.165 15.854 19.3865 16.1709 18.6634C16.4878 17.9402 16.9441 17.2866 17.5136 16.7398C18.0832 16.193 18.7549 15.7638 19.4904 15.4767C20.2259 15.1896 21.0107 15.0502 21.8001 15.0664H40.2L34.0667 24.2664H37.7314ZM19.6688 30.3998L12.6002 41.1331L19.6688 51.8664L23.3335 51.8664L17.2001 42.6665H35.6001C38.0242 42.6666 40.3504 41.7099 42.0732 40.0045C43.7959 38.299 44.7758 35.9825 44.8001 33.5585C44.8002 32.6029 44.6607 31.6524 44.3861 30.7372L43.2668 27.3332H40.0161L41.4421 31.5652C41.6386 32.1797 41.7369 32.8213 41.7334 33.4665V33.7118C41.7175 34.5012 41.5462 35.2797 41.2293 36.0029C40.9124 36.726 40.4561 37.3797 39.8866 37.9264C39.317 38.4732 38.6453 38.9024 37.9098 39.1896C37.1743 39.4767 36.3895 39.6161 35.6001 39.5998L17.2001 39.5998L23.3335 30.3998L19.6688 30.3998Z" fill="#5E5E5E"/>
</svg>
