<svg width="43" height="42" viewBox="0 0 43 42" fill="none" xmlns="http://www.w3.org/2000/svg">
<rect x="0.666992" width="42" height="42" rx="6" fill="#F1EBFF"/>
<g clip-path="url(#clip0_22335_15626)">
<path d="M11.667 25.667C11.667 24.9597 11.948 24.2813 12.4481 23.7811C12.9483 23.281 13.6267 23 14.334 23H17C17.7073 23 18.3857 23.281 18.8858 23.7811C19.386 24.2813 19.667 24.9597 19.667 25.667V28.333C19.667 29.0403 19.386 29.7187 18.8858 30.2189C18.3857 30.719 17.7073 31 17 31H14.334C13.9838 31 13.637 30.931 13.3134 30.797C12.9898 30.663 12.6958 30.4665 12.4481 30.2189C12.2005 29.9712 12.004 29.6772 11.87 29.3536C11.736 29.03 11.667 28.6832 11.667 28.333V25.667Z" fill="#7B4ADF"/>
<path d="M23.667 25.667C23.667 25.3168 23.736 24.97 23.87 24.6464C24.004 24.3228 24.2005 24.0288 24.4481 23.7811C24.6958 23.5335 24.9898 23.337 25.3134 23.203C25.637 23.069 25.9838 23 26.334 23H29C29.7073 23 30.3857 23.281 30.8858 23.7811C31.386 24.2813 31.667 24.9597 31.667 25.667V28.333C31.667 28.6832 31.598 29.03 31.464 29.3536C31.33 29.6772 31.1335 29.9712 30.8858 30.2189C30.6382 30.4665 30.3442 30.663 30.0206 30.797C29.697 30.931 29.3502 31 29 31H26.334C25.9838 31 25.637 30.931 25.3134 30.797C24.9898 30.663 24.6958 30.4665 24.4481 30.2189C24.2005 29.9712 24.004 29.6772 23.87 29.3536C23.736 29.03 23.667 28.6832 23.667 28.333V25.667Z" fill="#7B4ADF"/>
<path d="M17.667 13.667C17.667 12.9597 17.948 12.2813 18.4481 11.7811C18.9483 11.281 19.6267 11 20.334 11H23C23.7073 11 24.3857 11.281 24.8858 11.7811C25.386 12.2813 25.667 12.9597 25.667 13.667V16.333C25.667 17.0403 25.386 17.7187 24.8858 18.2189C24.3857 18.719 23.7073 19 23 19H20.334C19.6267 19 18.9483 18.719 18.4481 18.2189C17.948 17.7187 17.667 17.0403 17.667 16.333V13.667Z" fill="#7B4ADF"/>
<path d="M21.667 17C21.4018 17 21.1474 17.1054 20.9599 17.2929C20.7723 17.4804 20.667 17.7348 20.667 18V20H17.667C16.022 20 14.667 21.355 14.667 23V24C14.667 24.2652 14.7723 24.5196 14.9599 24.7071C15.1474 24.8946 15.4018 25 15.667 25C15.9322 25 16.1866 24.8946 16.3741 24.7071C16.5616 24.5196 16.667 24.2652 16.667 24V23C16.667 22.436 17.103 22 17.667 22H25.667C26.231 22 26.667 22.436 26.667 23V24C26.667 24.2652 26.7723 24.5196 26.9599 24.7071C27.1474 24.8946 27.4018 25 27.667 25C27.9322 25 28.1866 24.8946 28.3741 24.7071C28.5616 24.5196 28.667 24.2652 28.667 24V23C28.667 21.355 27.312 20 25.667 20H22.667V18C22.667 17.7348 22.5616 17.4804 22.3741 17.2929C22.1866 17.1054 21.9322 17 21.667 17Z" fill="#7B4ADF"/>
</g>
<defs>
<clipPath id="clip0_22335_15626">
<rect width="24" height="24" fill="white" transform="translate(9.66699 9)"/>
</clipPath>
</defs>
</svg>
