<svg width="25" height="25" viewBox="0 0 25 25" fill="none" xmlns="http://www.w3.org/2000/svg">
<path d="M21.5 8.5H3.5M16.5 2.5V5.5M8.5 2.5V5.5M12.5 18.5V12.5M9.5 15.5H15.5M8.3 22.5H16.7C18.3802 22.5 19.2202 22.5 19.862 22.173C20.4265 21.8854 20.8854 21.4265 21.173 20.862C21.5 20.2202 21.5 19.3802 21.5 17.7V9.3C21.5 7.61984 21.5 6.77976 21.173 6.13803C20.8854 5.57354 20.4265 5.1146 19.862 4.82698C19.2202 4.5 18.3802 4.5 16.7 4.5H8.3C6.61984 4.5 5.77976 4.5 5.13803 4.82698C4.57354 5.1146 4.1146 5.57354 3.82698 6.13803C3.5 6.77976 3.5 7.61984 3.5 9.3V17.7C3.5 19.3802 3.5 20.2202 3.82698 20.862C4.1146 21.4265 4.57354 21.8854 5.13803 22.173C5.77976 22.5 6.61984 22.5 8.3 22.5Z" stroke="#323232" stroke-width="2" stroke-linecap="round" stroke-linejoin="round"/>
</svg>
