<svg width="21" height="20" viewBox="0 0 21 20" fill="none" xmlns="http://www.w3.org/2000/svg">
<circle cx="10.5" cy="10" r="10" fill="#00B796"/>
<path d="M8.96257 5.07812H11.2021C13.3137 5.07812 14.3694 5.07812 15.0254 5.73649C15.6813 6.39486 15.6813 7.45448 15.6813 9.57375V9.85474C15.6813 11.974 15.6813 13.0336 15.0254 13.692C14.3694 14.3503 13.3137 14.3503 11.2021 14.3503C10.8883 14.3573 10.6384 14.3813 10.3929 14.4374C9.8284 14.5679 9.29908 14.8324 8.77965 15.0921C8.68172 15.141 8.58398 15.1899 8.48658 15.2376C7.6117 15.6657 7.17426 15.8798 6.89974 15.6794C6.63779 15.4836 6.62627 15.1143 6.69923 14.7058C6.72937 14.5371 6.74444 14.4527 6.70774 14.3997C6.67105 14.3467 6.58657 14.3311 6.41759 14.2999C5.86744 14.1983 5.44193 13.9956 5.13936 13.692C4.4834 13.0336 4.4834 11.974 4.4834 9.85474V9.57375C4.4834 7.45448 4.4834 6.39486 5.13936 5.73649C5.79532 5.07812 6.85107 5.07812 8.96257 5.07812Z" fill="white"/>
</svg>
