<svg width="38" height="38" viewBox="0 0 38 38" fill="none" xmlns="http://www.w3.org/2000/svg">
<path d="M31.0425 18.4881L30.0772 10.6467L28.2683 10.8694L28.2691 10.8681L24.7623 8.8946C24.3882 8.68411 23.9589 8.59252 23.5315 8.63201L17.9944 9.14412C17.6589 9.17514 17.3357 9.28594 17.0517 9.46727C16.7678 9.6486 16.5313 9.89521 16.3621 10.1865L12.4594 16.9039C12.1712 17.3999 12.3974 18.036 12.9341 18.2387L13.0937 18.299C13.4008 18.415 13.7165 18.4821 14.032 18.5084L13.5375 18.9391L12.5481 19.8011L9.73429 22.2013C9.23339 22.6376 9.18136 23.3969 9.61769 23.8978L9.90313 24.2247C10.4635 24.8673 11.4388 24.934 12.0826 24.3735L13.158 25.607C13.5076 26.0086 14.0199 26.1862 14.512 26.1256C14.818 26.088 15.1056 25.9592 15.3373 25.7558L16.4116 26.9894C16.7625 27.392 17.2747 27.5684 17.7668 27.5078C18.0727 27.4706 18.3603 27.3422 18.5923 27.1393L19.1761 27.6438C19.7366 28.2875 20.713 28.3541 21.3567 27.7936L22.1504 27.1012L28.8223 21.905L28.8295 21.8984L31.4619 21.8958L31.0425 18.4881Z" fill="#F29F5C"/>
<path d="M28.183 19.8794L28.1758 19.886L21.5039 25.0822L20.7103 25.7746C20.0666 26.3351 19.0901 26.2685 18.5296 25.6248L17.9458 25.1203C17.7139 25.3232 17.4263 25.4516 17.1203 25.4888C16.6282 25.5494 16.1161 25.373 15.7651 24.9704L14.6909 23.7368C14.4591 23.9401 14.1715 24.0689 13.8656 24.1066C13.3734 24.1672 12.8612 23.9896 12.5115 23.588L11.4361 22.3545C10.8849 22.8344 10.0914 22.8531 9.52267 22.4456C9.23099 22.8854 9.2543 23.4815 9.61789 23.8989L9.90334 24.2259C10.4637 24.8684 11.439 24.9352 12.0828 24.3747L13.1582 25.6082C13.5078 26.0097 14.0201 26.1873 14.5122 26.1267C14.8182 26.0891 15.1058 25.9603 15.3375 25.757L16.4118 26.9907C16.7627 27.3932 17.2749 27.5696 17.767 27.5091C18.0729 27.4719 18.3605 27.3434 18.5925 27.1405L19.1763 27.645C19.7368 28.2887 20.7132 28.3553 21.357 27.7948L22.1506 27.1024L28.8225 21.9062L28.8297 21.8996L31.4621 21.897L31.1709 19.5312L28.183 19.8794Z" fill="#D37D42"/>
<path d="M29.398 23.2703L25.8233 20.188L24.8292 19.3315L24.1179 18.7189L21.0596 16.0827L21.4128 13.0761C21.5323 12.0592 20.8921 11.1072 19.9053 10.8342L13.2386 8.98946C12.8964 8.89478 12.5321 8.92102 12.207 9.06376C11.8819 9.20649 11.6159 9.45699 11.4541 9.77299L10.6157 11.4095L7.01697 11.1653L6.09518 19.0119L5.69455 22.4219L9.19751 22.6549L9.20479 22.6615L16.5229 28.9695L17.3204 29.6575C17.9672 30.2145 18.9432 30.1425 19.5001 29.4957L20.5674 28.2572C20.8005 28.4589 21.0888 28.5858 21.3949 28.6213C21.8874 28.6792 22.3986 28.4999 22.7473 28.0954L23.8147 26.8559C24.0476 27.0579 24.3359 27.1851 24.6421 27.221C25.1345 27.2789 25.6458 27.0985 25.9932 26.6949L27.0617 25.4555C27.7086 26.0124 28.6835 25.9403 29.2403 25.2946L29.5239 24.966C29.9575 24.4628 29.9013 23.7039 29.398 23.2703Z" fill="#F9C295"/>
<path d="M29.3981 23.2709L28.3092 22.332C28.6631 22.8013 28.6558 23.4689 28.2564 23.9325L27.9553 24.2812C27.3643 24.9666 26.3293 25.0432 25.6427 24.452L24.5083 25.7678C24.1395 26.1961 23.5968 26.3876 23.074 26.3262C22.7489 26.2881 22.4429 26.153 22.1957 25.9385L21.0625 27.2544C20.6924 27.6838 20.1497 27.8741 19.6269 27.8127C19.302 27.775 18.9959 27.6404 18.7485 27.4263L17.6155 28.741C17.4102 28.9796 17.1402 29.1537 16.8381 29.2421L17.3205 29.6582C17.9673 30.2152 18.9433 30.1432 19.5003 29.4964L20.5675 28.258C20.8006 28.4596 21.0889 28.5865 21.3951 28.622C21.8875 28.6798 22.3987 28.5006 22.7474 28.0961L23.8148 26.8566C24.0477 27.0586 24.336 27.1858 24.6422 27.2217C25.1346 27.2796 25.6459 27.0992 25.9934 26.6956L27.0619 25.4562C27.7087 26.0131 28.6836 25.941 29.2404 25.2953L29.5241 24.9667C29.9576 24.4634 29.9013 23.7045 29.3981 23.2709Z" fill="#E59F6A"/>
<path d="M27.4237 25.0435L25.465 23.3545C25.3528 23.2606 25.2082 23.2146 25.0624 23.2264C24.9166 23.2383 24.7814 23.307 24.6858 23.4178C24.5903 23.5286 24.5422 23.6725 24.552 23.8185C24.5618 23.9644 24.6286 24.1007 24.738 24.1977L26.6933 25.8837L27.0619 25.4562C27.2046 25.5787 27.3686 25.6741 27.5458 25.7376C27.6086 25.6255 27.6307 25.4953 27.6085 25.3688C27.5862 25.2423 27.521 25.1274 27.4237 25.0435ZM24.2919 27.1373C24.426 26.9098 24.3831 26.6122 24.176 26.4337L22.4164 24.9166C22.3043 24.8226 22.1597 24.7766 22.0139 24.7884C21.8681 24.8003 21.7328 24.869 21.6373 24.9798C21.5418 25.0906 21.4937 25.2345 21.5035 25.3805C21.5132 25.5264 21.58 25.6627 21.6895 25.7598L23.449 27.2769L23.4513 27.2786L23.8148 26.8564C23.9555 26.9781 24.1172 27.0733 24.2919 27.1373Z" fill="#E59F6A"/>
<path d="M9.3801 22.6465L8.95609 23.2064C8.49437 23.8161 8.61431 24.6847 9.22402 25.1465C9.83372 25.6082 10.7023 25.4883 11.1641 24.8786L11.5881 24.3186C12.0498 23.7089 11.9299 22.8404 11.3202 22.3786C10.7105 21.9169 9.84181 22.0368 9.3801 22.6465ZM11.9626 23.8241L11.1641 24.8786C10.7024 25.4883 10.8223 26.3568 11.432 26.8186C12.0417 27.2803 12.9103 27.1604 13.3721 26.5507L14.1706 25.4963C14.6323 24.8866 14.5124 24.018 13.9027 23.5562C13.2929 23.0945 12.4243 23.2144 11.9626 23.8241Z" fill="#F29F5C"/>
<path d="M14.4603 25.1153L13.372 26.5523C12.9103 27.162 13.0302 28.0306 13.6399 28.4924C14.2496 28.9541 15.1182 28.8342 15.58 28.2245L16.6683 26.7874C17.13 26.1777 17.0101 25.3091 16.4004 24.8474C15.7906 24.3856 14.9221 24.5056 14.4603 25.1153Z" fill="#F29F5C"/>
<path d="M16.7314 26.7026L15.58 28.223C15.1183 28.8327 15.2382 29.7013 15.8479 30.1631C16.4576 30.6248 17.3262 30.5049 17.788 29.8952L18.9394 28.3748C19.4011 27.7651 19.2812 26.8965 18.6715 26.4347C18.0617 25.973 17.1931 26.0929 16.7314 26.7026ZM28.2691 10.8681L24.7622 8.8946C24.3882 8.68411 23.9589 8.59252 23.5315 8.63201L17.9943 9.14412C17.6589 9.17514 17.3357 9.28594 17.0517 9.46727C16.7678 9.6486 16.5313 9.89521 16.362 10.1865L12.4593 16.9039C12.1711 17.4 12.3974 18.036 12.934 18.2387L13.0937 18.299C14.5242 18.8393 16.1398 18.3795 17.0715 17.167L18.5668 15.221C18.5668 15.221 22.1611 19.3826 26.1184 14.5226" fill="#F29F5C"/>
<path d="M37.9958 22.9447L36.1616 8.04524C36.1527 7.97269 36.1296 7.90261 36.0936 7.839C36.0575 7.77539 36.0094 7.7195 35.9517 7.67451C35.8941 7.62953 35.8282 7.59633 35.7578 7.57683C35.6873 7.55732 35.6137 7.55188 35.5412 7.56082L31.2522 8.08881C30.1383 8.22597 29.3436 9.2438 29.4808 10.3577L30.9536 22.3217C31.0803 23.3517 31.9599 24.1086 32.9723 24.1086C33.0548 24.1086 33.1385 24.1036 33.2224 24.0933L37.5114 23.5653C37.6579 23.5472 37.7912 23.4717 37.8821 23.3553C37.9729 23.2389 38.0138 23.0913 37.9958 22.9447Z" fill="#5C9CEE"/>
<path d="M37.9958 22.9456L37.7944 21.3101C37.7479 21.3788 37.6872 21.4368 37.6163 21.4801C37.5455 21.5234 37.4663 21.551 37.3839 21.5611L32.8879 22.1146C32.8009 22.1253 32.7134 22.1307 32.6257 22.1307C31.8687 22.1307 31.1828 21.7268 30.8034 21.1035L30.9535 22.3225C31.0802 23.3524 31.9598 24.1094 32.9722 24.1094C33.0548 24.1094 33.1384 24.1043 33.2223 24.094L37.5113 23.566C37.5839 23.5571 37.6539 23.534 37.7176 23.498C37.7812 23.4619 37.8371 23.4137 37.8821 23.3561C37.927 23.2985 37.9602 23.2326 37.9798 23.1622C37.9993 23.0917 38.0047 23.0181 37.9958 22.9456Z" fill="#3580D3"/>
<path d="M6.74782 8.08883L2.45887 7.56084C2.38632 7.55188 2.31271 7.5573 2.24225 7.5768C2.1718 7.5963 2.10588 7.62949 2.04826 7.67448C1.99063 7.71947 1.94244 7.77537 1.90643 7.83899C1.87043 7.90261 1.84731 7.9727 1.8384 8.04526L0.00423256 22.9448C-0.013802 23.0913 0.0271028 23.239 0.117949 23.3554C0.208796 23.4717 0.342143 23.5472 0.488658 23.5653L4.77761 24.0933C4.86163 24.1036 4.94512 24.1086 5.02773 24.1086C6.04007 24.1086 6.91971 23.3516 7.04648 22.3218L8.51928 10.3577C8.65643 9.24382 7.86177 8.22598 6.74782 8.08883Z" fill="#ED5575"/>
<path d="M0.0042294 22.9456L0.205585 21.3101C0.252135 21.3788 0.312861 21.4368 0.38368 21.4801C0.454499 21.5234 0.53377 21.551 0.616163 21.5611L5.11211 22.1146C5.20014 22.1254 5.28779 22.1307 5.37433 22.1307C6.13136 22.1307 6.81721 21.7268 7.19662 21.1035L7.04655 22.3225C6.91978 23.3524 6.04022 24.1094 5.0278 24.1094C4.94527 24.1094 4.86162 24.1043 4.77768 24.094L0.488729 23.566C0.416176 23.5571 0.34609 23.534 0.282476 23.498C0.218861 23.4619 0.162963 23.4137 0.117973 23.3561C0.0729823 23.2985 0.0397813 23.2326 0.0202652 23.1622C0.000749075 23.0917 -0.0046999 23.0181 0.0042294 22.9456Z" fill="#CC3A60"/>
<path d="M34.4374 21.6345C35.0316 21.6345 35.5134 21.1527 35.5134 20.5584C35.5134 19.9642 35.0316 19.4824 34.4374 19.4824C33.8431 19.4824 33.3613 19.9642 33.3613 20.5584C33.3613 21.1527 33.8431 21.6345 34.4374 21.6345Z" fill="#EBEEF2"/>
<path d="M3.50238 21.6345C4.09666 21.6345 4.57841 21.1527 4.57841 20.5584C4.57841 19.9642 4.09666 19.4824 3.50238 19.4824C2.90811 19.4824 2.42636 19.9642 2.42636 20.5584C2.42636 21.1527 2.90811 21.6345 3.50238 21.6345Z" fill="#EBEEF2"/>
</svg>
