<svg width="33" height="32" viewBox="0 0 33 32" fill="none" xmlns="http://www.w3.org/2000/svg">
<g clip-path="url(#clip0_21480_13611)">
<path d="M16.5 21.9316C15.6054 21.9316 14.8555 22.6815 14.8555 23.5762C14.8555 24.4708 15.6054 25.2207 16.5 25.2207C17.3617 25.2207 18.1445 24.4708 18.105 23.6156C18.1445 22.675 17.4012 21.9316 16.5 21.9316Z" fill="#FF1313"/>
<path d="M31.7213 27.7597C32.7541 25.9771 32.7607 23.8524 31.7345 22.0763L21.4332 4.23647C20.4136 2.44065 18.5717 1.375 16.5062 1.375C14.4407 1.375 12.5988 2.44723 11.5792 4.22989L1.26473 22.0894C0.238552 23.8852 0.24513 26.0231 1.28447 27.8058C2.31065 29.5687 4.14594 30.6278 6.19831 30.6278H26.7746C28.8335 30.6278 30.682 29.5556 31.7213 27.7597ZM29.4848 26.4704C28.9125 27.4571 27.8994 28.0426 26.768 28.0426H6.19173C5.07345 28.0426 4.067 27.4703 3.50787 26.5033C2.94215 25.5232 2.93557 24.3523 3.50129 23.3656L13.8157 5.51262C14.3749 4.53249 15.3747 3.95361 16.5062 3.95361C17.631 3.95361 18.6375 4.53906 19.1966 5.5192L29.5045 23.3722C30.0571 24.3326 30.0505 25.4903 29.4848 26.4704Z" fill="#FF1313"/>
<path d="M16.0918 10.3863C15.309 10.6099 14.8223 11.3204 14.8223 12.1821C14.8617 12.7018 14.8946 13.228 14.9341 13.7477C15.0459 15.7277 15.1577 17.6682 15.2696 19.6482C15.309 20.3192 15.8287 20.806 16.4997 20.806C17.1706 20.806 17.6969 20.2863 17.7298 19.6088C17.7298 19.2009 17.7298 18.826 17.7693 18.4115C17.8416 17.142 17.9205 15.8724 17.9929 14.6028C18.0324 13.7806 18.1047 12.9583 18.1442 12.136C18.1442 11.84 18.1047 11.5769 17.9929 11.3138C17.6574 10.577 16.8746 10.2021 16.0918 10.3863Z" fill="#FF1313"/>
</g>
<defs>
<clipPath id="clip0_21480_13611">
<rect width="32" height="32" fill="white" transform="translate(0.5)"/>
</clipPath>
</defs>
</svg>
