<svg width="52" height="52" viewBox="0 0 52 52" fill="none" xmlns="http://www.w3.org/2000/svg">
<g filter="url(#filter0_d_22656_18586)">
<circle cx="26" cy="22" r="22" fill="white"/>
</g>
<path fill-rule="evenodd" clip-rule="evenodd" d="M26.7461 31.75C26.7461 31.1977 27.1938 30.75 27.7461 30.75H35.7461C36.2984 30.75 36.7461 31.1977 36.7461 31.75C36.7461 32.3023 36.2984 32.75 35.7461 32.75H27.7461C27.1938 32.75 26.7461 32.3023 26.7461 31.75Z" fill="#004BDE"/>
<path d="M33.0517 11.7366C31.8469 11.0677 30.3859 11.0898 29.2014 11.7943C28.8253 12.018 28.478 12.3512 28.0409 12.8151C27.855 13.0123 27.762 13.1109 27.7638 13.2326C27.7656 13.3543 27.8624 13.4511 28.0561 13.6448L34.4474 20.036C34.6451 20.2338 34.744 20.3327 34.8679 20.3329C34.9918 20.3332 35.0898 20.236 35.2859 20.0416C35.7067 19.6244 36.0117 19.2862 36.2192 18.9221C36.9029 17.7226 36.924 16.2478 36.2754 15.0287C36.005 14.5205 35.5497 14.0557 34.8694 13.3612L34.6853 13.1731C34.0073 12.4801 33.5515 12.0141 33.0517 11.7366Z" fill="#004BDE"/>
<path d="M32.9827 22.2649C33.1899 22.0653 33.2935 21.9655 33.2947 21.8396C33.2959 21.7137 33.1942 21.612 32.9907 21.4085L26.7326 15.1504C26.5252 14.943 26.4215 14.8393 26.2937 14.8418C26.1659 14.8444 26.0664 14.9522 25.8675 15.1678L18.1415 23.5384C17.0215 24.7516 16.335 25.4951 15.9331 26.4201C15.5321 27.3432 15.4531 28.3589 15.3239 30.0197L15.3237 30.0226C15.3235 30.0255 15.2382 31.1162 15.2514 31.3524C15.2663 31.6198 15.33 31.9449 15.5782 32.2266C15.8286 32.5108 16.1452 32.613 16.4117 32.6575C16.6436 32.6962 17.6878 32.7234 17.6899 32.7234C19.587 32.7734 20.7598 32.8043 21.8382 32.383C22.9152 31.9624 23.7662 31.1424 25.1471 29.8119L32.9827 22.2649Z" fill="#004BDE"/>
<defs>
<filter id="filter0_d_22656_18586" x="0" y="0" width="52" height="52" filterUnits="userSpaceOnUse" color-interpolation-filters="sRGB">
<feFlood flood-opacity="0" result="BackgroundImageFix"/>
<feColorMatrix in="SourceAlpha" type="matrix" values="0 0 0 0 0 0 0 0 0 0 0 0 0 0 0 0 0 0 127 0" result="hardAlpha"/>
<feOffset dy="4"/>
<feGaussianBlur stdDeviation="2"/>
<feComposite in2="hardAlpha" operator="out"/>
<feColorMatrix type="matrix" values="0 0 0 0 0 0 0 0 0 0 0 0 0 0 0 0 0 0 0.1 0"/>
<feBlend mode="normal" in2="BackgroundImageFix" result="effect1_dropShadow_22656_18586"/>
<feBlend mode="normal" in="SourceGraphic" in2="effect1_dropShadow_22656_18586" result="shape"/>
</filter>
</defs>
</svg>
