<svg width="38" height="38" viewBox="0 0 38 38" fill="none" xmlns="http://www.w3.org/2000/svg">
<g clip-path="url(#clip0_22832_16862)">
<path fill-rule="evenodd" clip-rule="evenodd" d="M18.9999 38.0034C18.4136 38.0034 17.8199 37.9366 17.2484 37.8105C14.0941 37.1054 11.4 35.7027 9.24023 33.6468C7.51836 32.0066 6.13789 29.9507 5.12852 27.5312C3.43633 23.4343 3.41406 19.7679 3.41406 19.612V6.8168C3.41406 6.58672 3.58477 6.40117 3.81484 6.37148C8.86172 5.84453 12.632 4.17461 14.9105 2.86836C17.382 1.45078 18.666 0.144531 18.6809 0.129688C18.7626 0.040625 18.8813 -0.00390625 19.0001 -0.00390625C19.1188 -0.00390625 19.2375 0.0480469 19.3192 0.129688C19.3341 0.144531 20.618 1.45078 23.0895 2.86836C25.368 4.17461 29.1384 5.83711 34.1852 6.37148C34.4153 6.39375 34.586 6.58672 34.586 6.8168V19.6121C34.586 19.768 34.5637 23.4344 32.8641 27.5312C31.8622 29.9507 30.4817 32.0066 28.7524 33.6469C26.5927 35.7027 23.8985 37.1055 20.7442 37.8105C20.18 37.9366 19.5863 38.0034 18.9999 38.0034Z" fill="#CAE8F9"/>
<path fill-rule="evenodd" clip-rule="evenodd" d="M18.9999 34.5674C18.3173 34.5674 17.6418 34.4784 16.9813 34.3077C14.5173 33.662 12.4169 32.4745 10.7395 30.7897C9.38875 29.4389 8.3125 27.7765 7.5332 25.8319C6.21211 22.544 6.19727 19.6347 6.19727 19.5084V9.06602C6.19727 8.83594 6.36797 8.65039 6.59805 8.6207C10.7023 8.19023 13.7676 6.83945 15.6156 5.77813C17.6195 4.62773 18.6734 3.56641 18.6809 3.55156C18.7624 3.4625 18.8811 3.41797 18.9999 3.41797C19.1187 3.41797 19.2374 3.46992 19.3191 3.55156C19.3265 3.55898 20.3804 4.62773 22.3843 5.77813C24.2323 6.83945 27.2976 8.19031 31.4019 8.6207C31.632 8.64297 31.8027 8.83594 31.8027 9.06602V19.5159C31.8027 19.6347 31.7878 22.5441 30.4667 25.8394C29.6874 27.784 28.6113 29.4464 27.2679 30.7972C25.5831 32.4894 23.4827 33.6695 21.0261 34.3152C20.3581 34.4859 19.6827 34.5675 18.9999 34.5675V34.5674Z" fill="#3E9DDD"/>
<path fill-rule="evenodd" clip-rule="evenodd" d="M16.4024 25.3792C16.2836 25.3792 16.1723 25.3347 16.0906 25.2456L11.0957 20.2507C10.9251 20.0801 10.9251 19.798 11.0957 19.6198L12.6543 18.0613C12.7359 17.9797 12.8547 17.9277 12.966 17.9277C13.0774 17.9277 13.1962 17.9723 13.2777 18.0613L16.4024 21.1859L24.7224 12.866C24.8039 12.7844 24.9227 12.7324 25.0341 12.7324C25.1528 12.7324 25.2641 12.777 25.3458 12.866L26.9044 14.4246C27.075 14.5953 27.075 14.8774 26.9044 15.0555L16.7141 25.2531C16.6324 25.3348 16.521 25.3793 16.4024 25.3793V25.3792Z" fill="white"/>
</g>
<defs>
<clipPath id="clip0_22832_16862">
<rect width="38" height="38" fill="white"/>
</clipPath>
</defs>
</svg>
