<svg width="21" height="20" viewBox="0 0 21 20" fill="none" xmlns="http://www.w3.org/2000/svg">
<path fill-rule="evenodd" clip-rule="evenodd" d="M10.5 20C4.97715 20 0.5 15.5229 0.5 10C0.5 4.47715 4.97715 0 10.5 0C16.0229 0 20.5 4.47715 20.5 10C20.5 15.5229 16.0229 20 10.5 20ZM11.407 7.52831L11.5721 7.0106C11.6155 6.87456 11.6372 6.80633 11.654 6.74028C11.8038 6.14873 11.7048 5.5256 11.3778 5.00105C11.3412 4.94246 11.2993 4.88331 11.2154 4.76503C11.1619 4.68941 11.135 4.6516 11.1105 4.62467C10.8816 4.37325 10.4774 4.34834 10.2155 4.56954C10.1874 4.59323 10.1556 4.62743 10.092 4.69581L7.5547 7.42283C6.94114 8.08225 6.63437 8.412 6.47417 8.81293C6.31395 9.21395 6.31395 9.652 6.31395 10.5283V11.1142C6.31395 12.7816 6.31395 13.6153 6.86473 14.1332C7.41553 14.6512 8.30199 14.6512 10.075 14.6512H10.3924C11.8557 14.6512 12.5874 14.6512 13.178 14.3226C13.2352 14.2908 13.291 14.2568 13.3453 14.2209C13.9062 13.8493 14.2084 13.218 14.8126 11.9553C15.471 10.5793 15.8002 9.89135 15.5106 9.38056C15.4775 9.32223 15.4393 9.26661 15.3962 9.21423C15.0198 8.75637 14.2229 8.75637 12.629 8.75637H12.3785C11.9075 8.75637 11.6721 8.75637 11.5165 8.6613C11.3905 8.58447 11.298 8.46763 11.256 8.33209C11.2039 8.16465 11.2716 7.95251 11.407 7.52831Z" fill="#F04E4E"/>
</svg>
