<svg width="24" height="25" viewBox="0 0 24 25" fill="none" xmlns="http://www.w3.org/2000/svg">
<path d="M2 7.73828L10.1649 13.4537C10.8261 13.9165 11.1567 14.148 11.5163 14.2376C11.8339 14.3168 12.1661 14.3168 12.4837 14.2376C12.8433 14.148 13.1739 13.9165 13.8351 13.4537L22 7.73828M6.8 20.7383H17.2C18.8802 20.7383 19.7202 20.7383 20.362 20.4113C20.9265 20.1237 21.3854 19.6647 21.673 19.1003C22 18.4585 22 17.6184 22 15.9383V9.53828C22 7.85812 22 7.01805 21.673 6.37631C21.3854 5.81182 20.9265 5.35288 20.362 5.06526C19.7202 4.73828 18.8802 4.73828 17.2 4.73828H6.8C5.11984 4.73828 4.27976 4.73828 3.63803 5.06526C3.07354 5.35288 2.6146 5.81182 2.32698 6.37631C2 7.01805 2 7.85812 2 9.53828V15.9383C2 17.6184 2 18.4585 2.32698 19.1003C2.6146 19.6647 3.07354 20.1237 3.63803 20.4113C4.27976 20.7383 5.11984 20.7383 6.8 20.7383Z" stroke="#323232" stroke-width="2" stroke-linecap="round" stroke-linejoin="round"/>
</svg>
