<svg width="25" height="25" viewBox="0 0 25 25" fill="none" xmlns="http://www.w3.org/2000/svg">
<path d="M12.4906 2.75C7.10938 2.75 2.75 7.11875 2.75 12.5C2.75 17.8813 7.10938 22.25 12.4906 22.25C17.8813 22.25 22.25 17.8813 22.25 12.5C22.25 7.11875 17.8813 2.75 12.4906 2.75ZM12.5 20.3C8.19219 20.3 4.7 16.8078 4.7 12.5C4.7 8.19219 8.19219 4.7 12.5 4.7C16.8078 4.7 20.3 8.19219 20.3 12.5C20.3 16.8078 16.8078 20.3 12.5 20.3Z" fill="#323232"/>
<path d="M12.9879 7.625H11.5254V13.475L16.6441 16.5453L17.3754 15.3453L12.9879 12.7438V7.625Z" fill="#323232"/>
</svg>
