<svg width="24" height="28" viewBox="0 0 24 28" fill="none" xmlns="http://www.w3.org/2000/svg">
<path d="M21.3333 16.1146V11.3333C21.3333 7.04396 18.42 3.43063 14.4733 2.34396C14.0827 1.35996 13.128 0.666626 12 0.666626C10.872 0.666626 9.91733 1.35996 9.52667 2.34396C5.58 3.43196 2.66667 7.04396 2.66667 11.3333V16.1146L0.390668 18.3906C0.266611 18.5142 0.168228 18.6612 0.101181 18.8229C0.0341335 18.9847 -0.000252599 19.1582 1.3969e-06 19.3333V22C1.3969e-06 22.3536 0.140477 22.6927 0.390526 22.9428C0.640574 23.1928 0.979713 23.3333 1.33333 23.3333H22.6667C23.0203 23.3333 23.3594 23.1928 23.6095 22.9428C23.8595 22.6927 24 22.3536 24 22V19.3333C24.0003 19.1582 23.9659 18.9847 23.8988 18.8229C23.8318 18.6612 23.7334 18.5142 23.6093 18.3906L21.3333 16.1146ZM21.3333 20.6666H2.66667V19.8853L4.94267 17.6093C5.06672 17.4857 5.16511 17.3388 5.23216 17.177C5.2992 17.0152 5.33359 16.8418 5.33333 16.6666V11.3333C5.33333 7.65729 8.324 4.66663 12 4.66663C15.676 4.66663 18.6667 7.65729 18.6667 11.3333V16.6666C18.6667 17.0213 18.8067 17.36 19.0573 17.6093L21.3333 19.8853V20.6666ZM12 27.3333C12.8257 27.3343 13.6313 27.0781 14.3047 26.6002C14.978 26.1223 15.4858 25.4464 15.7573 24.6666H8.24267C8.51422 25.4464 9.02197 26.1223 9.69535 26.6002C10.3687 27.0781 11.1743 27.3343 12 27.3333V27.3333Z" fill="#323232"/>
</svg>
