<svg width="38" height="38" viewBox="0 0 38 38" fill="none" xmlns="http://www.w3.org/2000/svg">
<path d="M3.43634 12.4682V25.5307C3.43634 27.0447 4.24532 28.4475 5.559 29.2045L16.8774 35.7357C18.191 36.4928 19.809 36.4928 21.1227 35.7357L32.441 29.2045C33.7547 28.4475 34.5637 27.0447 34.5637 25.5307V12.4682C34.5637 10.9541 33.7547 9.55137 32.441 8.79434L21.1227 2.26309C20.4771 1.89111 19.7451 1.69531 19 1.69531C18.2549 1.69531 17.5229 1.89111 16.8774 2.26309L5.559 8.79434C4.24532 9.55137 3.43634 10.9467 3.43634 12.4682Z" fill="#F2F2F2"/>
<path d="M17.6567 22.0059C17.6567 21.3824 17.7606 20.8332 17.961 20.3508C18.1688 19.8684 18.4211 19.4453 18.7328 19.0742C19.0445 18.7031 19.3785 18.3543 19.7348 18.0352C20.091 17.716 20.425 17.4117 20.7367 17.1148C21.0485 16.818 21.3082 16.5137 21.5086 16.1945C21.7164 15.8754 21.8129 15.5191 21.8129 15.1258C21.8129 14.4875 21.5531 13.968 21.0262 13.582C20.4992 13.1887 19.8016 12.9957 18.9332 12.9957C18.0945 12.9957 17.3524 13.1664 16.6918 13.5152C16.4098 13.6637 16.15 13.8344 15.9125 14.0348C15.3113 14.532 14.4801 14.6211 13.8047 14.2277L13.7973 14.2203C12.6692 13.5598 12.5875 11.9566 13.6488 11.1848C14.0051 10.925 14.391 10.6875 14.8067 10.4723C16.0684 9.82656 17.5973 9.5 19.3934 9.5C20.7293 9.5 21.902 9.69297 22.9113 10.0715C23.9281 10.4574 24.7223 11.0066 25.3012 11.7414C25.8801 12.4687 26.1695 13.3668 26.1695 14.4355C26.1695 15.1258 26.0656 15.7418 25.8504 16.2762C25.6352 16.8105 25.3606 17.2707 25.0266 17.6641C24.6852 18.0574 24.3289 18.4211 23.9504 18.7551C23.5645 19.0965 23.2082 19.423 22.8742 19.7422C22.5328 20.0613 22.2582 20.4027 22.0356 20.759C21.8129 21.1152 21.7016 21.5309 21.7016 22.0133H17.6567V22.0059ZM19.6828 28.7004C18.9332 28.7004 18.3246 28.4629 17.8422 27.9805C17.3598 27.498 17.1223 26.934 17.1223 26.2734C17.1223 25.598 17.3598 25.034 17.8422 24.5813C18.3246 24.1285 18.9332 23.8984 19.6828 23.8984C20.4473 23.8984 21.0633 24.1285 21.5383 24.5813C22.0059 25.034 22.2434 25.598 22.2434 26.2734C22.2434 26.934 22.0059 27.498 21.5383 27.9805C21.0633 28.4555 20.4473 28.7004 19.6828 28.7004Z" fill="#FBB03B"/>
</svg>
