<svg width="24" height="25" viewBox="0 0 24 25" fill="none" xmlns="http://www.w3.org/2000/svg">
<g clip-path="url(#clip0_20869_6680)">
<path fill-rule="evenodd" clip-rule="evenodd" d="M6.14982 0.738281H14.1738L20.9744 7.82674V21.6139C20.9744 23.341 19.5771 24.7383 17.8559 24.7383H6.14982C4.42269 24.7383 3.02539 23.341 3.02539 21.6139V3.86271C3.02536 2.13558 4.42266 0.738281 6.14982 0.738281Z" fill="#E5252A"/>
<path fill-rule="evenodd" clip-rule="evenodd" d="M14.168 0.738281V7.77277H20.9746L14.168 0.738281Z" fill="black"/>
<path d="M6.49805 18.6455V14.2617H8.36312C8.82489 14.2617 9.19072 14.3877 9.46658 14.6455C9.74243 14.8974 9.88038 15.2392 9.88038 15.665C9.88038 16.0908 9.74243 16.4326 9.46658 16.6845C9.19072 16.9424 8.82489 17.0683 8.36312 17.0683H7.61949V18.6455H6.49805ZM7.61949 16.1148H8.23719C8.40509 16.1148 8.53703 16.0788 8.627 15.9949C8.71694 15.9169 8.76494 15.809 8.76494 15.665C8.76494 15.5211 8.71697 15.4132 8.627 15.3352C8.53706 15.2512 8.40512 15.2153 8.23719 15.2153H7.61949V16.1148ZM10.3421 18.6455V14.2617H11.8953C12.2012 14.2617 12.4891 14.3037 12.7589 14.3937C13.0288 14.4836 13.2747 14.6096 13.4905 14.7835C13.7064 14.9514 13.8803 15.1793 14.0063 15.4671C14.1262 15.755 14.1922 16.0848 14.1922 16.4566C14.1922 16.8225 14.1262 17.1523 14.0063 17.4401C13.8803 17.728 13.7064 17.9559 13.4905 18.1238C13.2746 18.2977 13.0288 18.4236 12.7589 18.5136C12.4891 18.6035 12.2012 18.6455 11.8953 18.6455H10.3421ZM11.4396 17.692H11.7634C11.9373 17.692 12.0992 17.674 12.2492 17.632C12.3931 17.5901 12.531 17.5241 12.663 17.4341C12.7889 17.3442 12.8908 17.2182 12.9628 17.0503C13.0348 16.8824 13.0708 16.6845 13.0708 16.4566C13.0708 16.2227 13.0348 16.0248 12.9628 15.8569C12.8908 15.689 12.7889 15.5631 12.663 15.4731C12.531 15.3832 12.3931 15.3172 12.2492 15.2752C12.0992 15.2333 11.9373 15.2153 11.7634 15.2153H11.4396V17.692ZM14.7559 18.6455V14.2617H17.8744V15.2153H15.8774V15.9169H17.4726V16.8644H15.8774V18.6455H14.7559Z" fill="white"/>
</g>
<defs>
<clipPath id="clip0_20869_6680">
<rect width="24" height="24" fill="white" transform="translate(0 0.738281)"/>
</clipPath>
</defs>
</svg>
