<svg width="21" height="22" viewBox="0 0 21 22" fill="none" xmlns="http://www.w3.org/2000/svg">
<path d="M10.5 5.10156C6.52344 5.10156 3.14062 7.53906 1.75 11C3.14062 14.4609 6.52344 16.8984 10.5 16.8984C14.4766 16.8984 17.8594 14.4609 19.25 11C17.8594 7.53906 14.4766 5.10156 10.5 5.10156ZM10.5 14.9336C8.3125 14.9336 6.52344 13.1641 6.52344 11C6.52344 8.83594 8.3125 7.06641 10.5 7.06641C12.6875 7.06641 14.4766 8.83594 14.4766 11C14.4766 13.1641 12.6875 14.9336 10.5 14.9336ZM10.5 8.64063C9.1875 8.64063 8.11328 9.70312 8.11328 11C8.11328 12.2969 9.1875 13.3594 10.5 13.3594C11.8125 13.3594 12.8867 12.2969 12.8867 11C12.8867 9.70312 11.8125 8.64063 10.5 8.64063Z" fill="#323232"/>
</svg>
