<svg width="24" height="25" viewBox="0 0 24 25" fill="none" xmlns="http://www.w3.org/2000/svg">
<g clip-path="url(#clip0_20869_6878)">
<path d="M24 12.7382C24 14.3113 23.6902 15.869 23.0882 17.3223C22.4862 18.7757 21.6038 20.0962 20.4914 21.2086C19.3791 22.3209 18.0585 23.2033 16.6052 23.8053C15.1518 24.4073 13.5941 24.7172 12.021 24.7172C10.4479 24.7172 8.8902 24.4073 7.43684 23.8053C5.98348 23.2033 4.66292 22.3209 3.55057 21.2086C2.43821 20.0962 1.55585 18.7757 0.953847 17.3223C0.351846 15.869 0.042 14.3113 0.042 12.7382C0.042 12.526 0.126285 12.3225 0.276315 12.1725C0.426344 12.0224 0.629827 11.9382 0.842 11.9382C1.05417 11.9382 1.25766 12.0224 1.40769 12.1725C1.55771 12.3225 1.642 12.526 1.642 12.7382C1.6446 15.2868 2.5839 17.7455 4.28123 19.6466C5.97856 21.5478 8.31549 22.7587 10.8475 23.0491C13.3795 23.3395 15.9299 22.689 18.0135 21.2215C20.0972 19.754 21.5688 17.5717 22.1483 15.0899C22.7278 12.6081 22.3748 9.99979 21.1565 7.76125C19.9382 5.5227 17.9396 3.81007 15.5408 2.94911C13.1421 2.08816 10.5105 2.13897 8.14676 3.09186C5.78301 4.04476 3.85198 5.83327 2.721 8.11716H4.3938C4.60597 8.11716 4.80946 8.20145 4.95949 8.35148C5.10951 8.50151 5.1938 8.70499 5.1938 8.91716C5.1938 9.12934 5.10951 9.33282 4.95949 9.48285C4.80946 9.63288 4.60597 9.71716 4.3938 9.71716H0.8C0.587827 9.71716 0.384344 9.63288 0.234315 9.48285C0.0842855 9.33282 0 9.12934 0 8.91716V5.09636C0 4.88419 0.0842855 4.68071 0.234315 4.53068C0.384344 4.38065 0.587827 4.29636 0.8 4.29636C1.01217 4.29636 1.21566 4.38065 1.36569 4.53068C1.51571 4.68071 1.6 4.88419 1.6 5.09636V6.82096C2.90277 4.51603 4.93267 2.70783 7.37228 1.67913C9.81188 0.650429 12.5236 0.459229 15.0834 1.13543C17.6433 1.81163 19.9068 3.31711 21.5201 5.41643C23.1334 7.51575 24.0055 10.0905 24 12.7382ZM11.2 16.641V13.4736C9.3764 13.1764 8 11.8836 8 10.3382C8 8.79276 9.3764 7.50016 11.2 7.20256V6.33816C11.2 6.12599 11.2843 5.92251 11.4343 5.77248C11.5843 5.62245 11.7878 5.53816 12 5.53816C12.2122 5.53816 12.4157 5.62245 12.5657 5.77248C12.7157 5.92251 12.8 6.12599 12.8 6.33816V7.20256C14.6236 7.50016 16 8.79276 16 10.3382C16 10.5503 15.9157 10.7538 15.7657 10.9038C15.6157 11.0539 15.4122 11.1382 15.2 11.1382C14.9878 11.1382 14.7843 11.0539 14.6343 10.9038C14.4843 10.7538 14.4 10.5503 14.4 10.3382C14.4 9.65696 13.7212 9.06076 12.8 8.83536V12.0026C14.6236 12.3002 16 13.5928 16 15.1382C16 16.6836 14.6236 17.9762 12.8 18.2736V19.1382C12.8 19.3503 12.7157 19.5538 12.5657 19.7038C12.4157 19.8539 12.2122 19.9382 12 19.9382C11.7878 19.9382 11.5843 19.8539 11.4343 19.7038C11.2843 19.5538 11.2 19.3503 11.2 19.1382V18.2736C9.3764 17.9764 8 16.6836 8 15.1382C8 14.926 8.08429 14.7225 8.23432 14.5725C8.38434 14.4224 8.58783 14.3382 8.8 14.3382C9.01217 14.3382 9.21566 14.4224 9.36569 14.5725C9.51572 14.7225 9.6 14.926 9.6 15.1382C9.6 15.8194 10.2788 16.4156 11.2 16.641ZM12.8 13.6354V16.641C13.7212 16.4156 14.4 15.8194 14.4 15.1382C14.4 14.457 13.7212 13.8608 12.8 13.6354ZM11.2 11.841V8.83536C10.2788 9.06076 9.6 9.65696 9.6 10.3382C9.6 11.0194 10.2788 11.6156 11.2 11.841Z" fill="#323232"/>
</g>
<defs>
<clipPath id="clip0_20869_6878">
<rect width="24" height="24" fill="white" transform="translate(0 0.738281)"/>
</clipPath>
</defs>
</svg>
