<svg width="43" height="42" viewBox="0 0 43 42" fill="none" xmlns="http://www.w3.org/2000/svg">
<rect x="0.333008" width="42" height="42" rx="6" fill="#F0F5FF"/>
<g clip-path="url(#clip0_22335_15647)">
<path d="M21.333 11C22.3219 11 23.2886 11.2932 24.1109 11.8427C24.9331 12.3921 25.574 13.173 25.9524 14.0866C26.3308 15.0002 26.4299 16.0055 26.2369 16.9755C26.044 17.9454 25.5678 18.8363 24.8685 19.5355C24.1693 20.2348 23.2784 20.711 22.3085 20.9039C21.3386 21.0969 20.3332 20.9978 19.4196 20.6194C18.506 20.241 17.7251 19.6001 17.1757 18.7779C16.6263 17.9556 16.333 16.9889 16.333 16L16.338 15.783C16.3939 14.4958 16.9446 13.2798 17.8752 12.3887C18.8058 11.4975 20.0445 11.0001 21.333 11Z" fill="#004BDE"/>
<path d="M23.333 23C24.6591 23 25.9309 23.5268 26.8685 24.4645C27.8062 25.4021 28.333 26.6739 28.333 28V29C28.333 29.5304 28.1223 30.0391 27.7472 30.4142C27.3721 30.7893 26.8634 31 26.333 31H16.333C15.8026 31 15.2939 30.7893 14.9188 30.4142C14.5437 30.0391 14.333 29.5304 14.333 29V28C14.333 26.6739 14.8598 25.4021 15.7975 24.4645C16.7352 23.5268 18.0069 23 19.333 23H23.333Z" fill="#004BDE"/>
</g>
<defs>
<clipPath id="clip0_22335_15647">
<rect width="24" height="24" fill="white" transform="translate(9.33301 9)"/>
</clipPath>
</defs>
</svg>
