<svg width="24" height="25" viewBox="0 0 24 25" fill="none" xmlns="http://www.w3.org/2000/svg">
<path d="M11.9906 2.75C6.60938 2.75 2.25 7.11875 2.25 12.5C2.25 17.8813 6.60938 22.25 11.9906 22.25C17.3813 22.25 21.75 17.8813 21.75 12.5C21.75 7.11875 17.3813 2.75 11.9906 2.75ZM12 20.3C7.69219 20.3 4.2 16.8078 4.2 12.5C4.2 8.19219 7.69219 4.7 12 4.7C16.3078 4.7 19.8 8.19219 19.8 12.5C19.8 16.8078 16.3078 20.3 12 20.3Z" fill="#323232"/>
<path d="M12.4879 7.625H11.0254V13.475L16.1441 16.5453L16.8754 15.3453L12.4879 12.7438V7.625Z" fill="#323232"/>
</svg>
