<svg width="42" height="42" viewBox="0 0 42 42" fill="none" xmlns="http://www.w3.org/2000/svg">
<rect width="42" height="42" rx="6" fill="#EFF6FF"/>
<g clip-path="url(#clip0_22335_15602)">
<path d="M20.9997 13C25.2897 13 28.8627 15.429 31.6647 20.154L31.8847 20.533L31.9297 20.633L31.9597 20.716L31.9737 20.771L31.9877 20.853L31.9987 20.953V21.063L31.9847 21.174C31.9781 21.2111 31.9694 21.2479 31.9587 21.284L31.9197 21.392L31.8837 21.467L31.8677 21.497C29.1037 26.333 25.5677 28.877 21.3127 28.996L20.9997 29C16.6037 29 12.9627 26.451 10.1317 21.496C10.0454 21.3449 10 21.174 10 21C10 20.826 10.0454 20.6551 10.1317 20.504C12.9627 15.549 16.6037 13 20.9997 13ZM20.9997 18C20.204 18 19.441 18.3161 18.8784 18.8787C18.3157 19.4413 17.9997 20.2044 17.9997 21C17.9997 21.7956 18.3157 22.5587 18.8784 23.1213C19.441 23.6839 20.204 24 20.9997 24C21.7953 24 22.5584 23.6839 23.121 23.1213C23.6836 22.5587 23.9997 21.7956 23.9997 21C23.9997 20.2044 23.6836 19.4413 23.121 18.8787C22.5584 18.3161 21.7953 18 20.9997 18Z" fill="#132E52"/>
</g>
<defs>
<clipPath id="clip0_22335_15602">
<rect width="24" height="24" fill="white" transform="translate(9 9)"/>
</clipPath>
</defs>
</svg>
