<svg width="21" height="20" viewBox="0 0 21 20" fill="none" xmlns="http://www.w3.org/2000/svg">
<circle cx="10.5" cy="10" r="10" fill="#132E52"/>
<path fill-rule="evenodd" clip-rule="evenodd" d="M6.48175 6.52743C7.53951 5.70165 8.90602 5 10.5002 5C12.0943 5 13.4608 5.70165 14.5186 6.52743C15.5773 7.35396 16.3598 8.33007 16.7976 8.94388L16.8306 8.98989C16.9876 9.20825 17.1668 9.45755 17.1668 9.8062C17.1668 10.1549 16.9876 10.4042 16.8306 10.6225L16.7976 10.6685C16.3598 11.2824 15.5773 12.2584 14.5186 13.085C13.4608 13.9108 12.0943 14.6124 10.5002 14.6124C8.90602 14.6124 7.53951 13.9108 6.48175 13.085C5.42303 12.2584 4.64048 11.2824 4.20274 10.6685L4.16974 10.6225C4.01275 10.4042 3.8335 10.1549 3.8335 9.8062C3.8335 9.45755 4.01275 9.20825 4.16974 8.98989L4.20274 8.94388C4.64048 8.33007 5.42303 7.35396 6.48175 6.52743ZM8.32962 9.8062C8.32962 11.005 9.3014 11.9767 10.5002 11.9767C11.6989 11.9767 12.6707 11.005 12.6707 9.8062C12.6707 8.60744 11.6989 7.63566 10.5002 7.63566C9.3014 7.63566 8.32962 8.60744 8.32962 9.8062Z" fill="white"/>
</svg>
