<svg width="24" height="25" viewBox="0 0 24 25" fill="none" xmlns="http://www.w3.org/2000/svg">
<path d="M6 15.8594L8 17.8594L12.5 13.3594M8 8.85938V6.05938C8 4.93927 8 4.37922 8.21799 3.95139C8.40973 3.57507 8.71569 3.26911 9.09202 3.07736C9.51984 2.85938 10.0799 2.85938 11.2 2.85938H18.8C19.9201 2.85938 20.4802 2.85938 20.908 3.07736C21.2843 3.26911 21.5903 3.57507 21.782 3.95139C22 4.37922 22 4.93927 22 6.05938V13.6594C22 14.7795 22 15.3395 21.782 15.7674C21.5903 16.1437 21.2843 16.4496 20.908 16.6414C20.4802 16.8594 19.9201 16.8594 18.8 16.8594H16M5.2 22.8594H12.8C13.9201 22.8594 14.4802 22.8594 14.908 22.6414C15.2843 22.4496 15.5903 22.1437 15.782 21.7674C16 21.3395 16 20.7795 16 19.6594V12.0594C16 10.9393 16 10.3792 15.782 9.95139C15.5903 9.57507 15.2843 9.26911 14.908 9.07736C14.4802 8.85938 13.9201 8.85938 12.8 8.85938H5.2C4.0799 8.85938 3.51984 8.85938 3.09202 9.07736C2.71569 9.26911 2.40973 9.57507 2.21799 9.95139C2 10.3792 2 10.9393 2 12.0594V19.6594C2 20.7795 2 21.3395 2.21799 21.7674C2.40973 22.1437 2.71569 22.4496 3.09202 22.6414C3.51984 22.8594 4.07989 22.8594 5.2 22.8594Z" stroke="white" stroke-width="2" stroke-linecap="round" stroke-linejoin="round"/>
</svg>
