<svg width="24" height="25" viewBox="0 0 24 25" fill="none" xmlns="http://www.w3.org/2000/svg">
<path d="M21 8.85938H3M16 2.85938V5.85938M8 2.85938V5.85938M12 18.8594V12.8594M9 15.8594H15M7.8 22.8594H16.2C17.8802 22.8594 18.7202 22.8594 19.362 22.5324C19.9265 22.2448 20.3854 21.7858 20.673 21.2213C21 20.5796 21 19.7395 21 18.0594V9.65938C21 7.97922 21 7.13914 20.673 6.4974C20.3854 5.93292 19.9265 5.47398 19.362 5.18636C18.7202 4.85937 17.8802 4.85938 16.2 4.85938H7.8C6.11984 4.85938 5.27976 4.85937 4.63803 5.18636C4.07354 5.47398 3.6146 5.93292 3.32698 6.4974C3 7.13914 3 7.97922 3 9.65937V18.0594C3 19.7395 3 20.5796 3.32698 21.2213C3.6146 21.7858 4.07354 22.2448 4.63803 22.5324C5.27976 22.8594 6.11984 22.8594 7.8 22.8594Z" stroke="white" stroke-width="2" stroke-linecap="round" stroke-linejoin="round"/>
</svg>
