<svg width="24" height="25" viewBox="0 0 24 25" fill="none" xmlns="http://www.w3.org/2000/svg">
<path d="M10 15.8594L6.92474 18.9731C6.49579 19.4074 6.28131 19.6246 6.09695 19.6399C5.93701 19.6532 5.78042 19.5889 5.67596 19.467C5.55556 19.3266 5.55556 19.0214 5.55556 18.4109V16.851C5.55556 16.3033 5.10707 15.9071 4.5652 15.8277V15.8277C3.25374 15.6356 2.22378 14.6056 2.03168 13.2942C2 13.0779 2 12.8199 2 12.3038V7.65938C2 5.97922 2 5.13914 2.32698 4.4974C2.6146 3.93292 3.07354 3.47398 3.63803 3.18636C4.27976 2.85938 5.11984 2.85938 6.8 2.85938H14.2C15.8802 2.85938 16.7202 2.85938 17.362 3.18636C17.9265 3.47398 18.3854 3.93292 18.673 4.4974C19 5.13914 19 5.97922 19 7.65938V11.8594M19 22.8594L16.8236 21.3463C16.5177 21.1336 16.3647 21.0272 16.1982 20.9518C16.0504 20.8849 15.8951 20.8362 15.7356 20.8068C15.5558 20.7737 15.3695 20.7737 14.9969 20.7737H13.2C12.0799 20.7737 11.5198 20.7737 11.092 20.5557C10.7157 20.3639 10.4097 20.058 10.218 19.6816C10 19.2538 10 18.6938 10 17.5737V15.0594C10 13.9393 10 13.3792 10.218 12.9514C10.4097 12.5751 10.7157 12.2691 11.092 12.0774C11.5198 11.8594 12.0799 11.8594 13.2 11.8594H18.8C19.9201 11.8594 20.4802 11.8594 20.908 12.0774C21.2843 12.2691 21.5903 12.5751 21.782 12.9514C22 13.3792 22 13.9393 22 15.0594V17.7737C22 18.7055 22 19.1715 21.8478 19.539C21.6448 20.0291 21.2554 20.4184 20.7654 20.6214C20.3978 20.7737 19.9319 20.7737 19 20.7737V22.8594Z" stroke="white" stroke-width="2" stroke-linecap="round" stroke-linejoin="round"/>
</svg>
