<svg width="24" height="25" viewBox="0 0 24 25" fill="none" xmlns="http://www.w3.org/2000/svg">
<path d="M8 11.8594H4C3.20435 11.8594 2.44129 11.5433 1.87868 10.9807C1.31607 10.4181 1 9.65502 1 8.85937V4.85937C1 4.06373 1.31607 3.30066 1.87868 2.73805C2.44129 2.17545 3.20435 1.85938 4 1.85938H8C8.79565 1.85938 9.55871 2.17545 10.1213 2.73805C10.6839 3.30066 11 4.06373 11 4.85937V8.85937C11 9.65502 10.6839 10.4181 10.1213 10.9807C9.55871 11.5433 8.79565 11.8594 8 11.8594ZM4 3.85937C3.73478 3.85937 3.48043 3.96473 3.29289 4.15227C3.10536 4.3398 3 4.59416 3 4.85937V8.85937C3 9.12459 3.10536 9.37894 3.29289 9.56648C3.48043 9.75402 3.73478 9.85937 4 9.85937H8C8.26522 9.85937 8.51957 9.75402 8.70711 9.56648C8.89464 9.37894 9 9.12459 9 8.85937V4.85937C9 4.59416 8.89464 4.3398 8.70711 4.15227C8.51957 3.96473 8.26522 3.85937 8 3.85937H4ZM20 11.8594H16C15.2043 11.8594 14.4413 11.5433 13.8787 10.9807C13.3161 10.4181 13 9.65502 13 8.85937V4.85937C13 4.06373 13.3161 3.30066 13.8787 2.73805C14.4413 2.17545 15.2043 1.85938 16 1.85938H20C20.7956 1.85938 21.5587 2.17545 22.1213 2.73805C22.6839 3.30066 23 4.06373 23 4.85937V8.85937C23 9.65502 22.6839 10.4181 22.1213 10.9807C21.5587 11.5433 20.7956 11.8594 20 11.8594ZM16 3.85937C15.7348 3.85937 15.4804 3.96473 15.2929 4.15227C15.1054 4.3398 15 4.59416 15 4.85937V8.85937C15 9.12459 15.1054 9.37894 15.2929 9.56648C15.4804 9.75402 15.7348 9.85937 16 9.85937H20C20.2652 9.85937 20.5196 9.75402 20.7071 9.56648C20.8946 9.37894 21 9.12459 21 8.85937V4.85937C21 4.59416 20.8946 4.3398 20.7071 4.15227C20.5196 3.96473 20.2652 3.85937 20 3.85937H16ZM8 23.8594H4C3.20435 23.8594 2.44129 23.5433 1.87868 22.9807C1.31607 22.4181 1 21.655 1 20.8594V16.8594C1 16.0637 1.31607 15.3007 1.87868 14.7381C2.44129 14.1754 3.20435 13.8594 4 13.8594H8C8.79565 13.8594 9.55871 14.1754 10.1213 14.7381C10.6839 15.3007 11 16.0637 11 16.8594V20.8594C11 21.655 10.6839 22.4181 10.1213 22.9807C9.55871 23.5433 8.79565 23.8594 8 23.8594ZM4 15.8594C3.73478 15.8594 3.48043 15.9647 3.29289 16.1523C3.10536 16.3398 3 16.5942 3 16.8594V20.8594C3 21.1246 3.10536 21.3789 3.29289 21.5665C3.48043 21.754 3.73478 21.8594 4 21.8594H8C8.26522 21.8594 8.51957 21.754 8.70711 21.5665C8.89464 21.3789 9 21.1246 9 20.8594V16.8594C9 16.5942 8.89464 16.3398 8.70711 16.1523C8.51957 15.9647 8.26522 15.8594 8 15.8594H4ZM20 23.8594H16C15.2043 23.8594 14.4413 23.5433 13.8787 22.9807C13.3161 22.4181 13 21.655 13 20.8594V16.8594C13 16.0637 13.3161 15.3007 13.8787 14.7381C14.4413 14.1754 15.2043 13.8594 16 13.8594H20C20.7956 13.8594 21.5587 14.1754 22.1213 14.7381C22.6839 15.3007 23 16.0637 23 16.8594V20.8594C23 21.655 22.6839 22.4181 22.1213 22.9807C21.5587 23.5433 20.7956 23.8594 20 23.8594ZM16 15.8594C15.7348 15.8594 15.4804 15.9647 15.2929 16.1523C15.1054 16.3398 15 16.5942 15 16.8594V20.8594C15 21.1246 15.1054 21.3789 15.2929 21.5665C15.4804 21.754 15.7348 21.8594 16 21.8594H20C20.2652 21.8594 20.5196 21.754 20.7071 21.5665C20.8946 21.3789 21 21.1246 21 20.8594V16.8594C21 16.5942 20.8946 16.3398 20.7071 16.1523C20.5196 15.9647 20.2652 15.8594 20 15.8594H16Z" fill="white"/>
</svg>
