<svg width="24" height="25" viewBox="0 0 24 25" fill="none" xmlns="http://www.w3.org/2000/svg">
<path d="M9.99996 13.8593C10.4294 14.4335 10.9773 14.9085 11.6065 15.2523C12.2357 15.596 12.9315 15.8005 13.6466 15.8517C14.3617 15.9029 15.0795 15.7997 15.7513 15.5491C16.4231 15.2985 17.0331 14.9064 17.54 14.3993L20.54 11.3993C21.4507 10.4563 21.9547 9.19332 21.9433 7.88233C21.9319 6.57135 21.4061 5.31729 20.479 4.39025C19.552 3.46321 18.2979 2.93736 16.987 2.92597C15.676 2.91458 14.413 3.41855 13.47 4.32934L11.75 6.03934M14 11.8593C13.5705 11.2852 13.0226 10.8102 12.3934 10.4664C11.7642 10.1226 11.0684 9.91822 10.3533 9.86701C9.63816 9.81579 8.92037 9.91897 8.24861 10.1696C7.57685 10.4201 6.96684 10.8123 6.45996 11.3193L3.45996 14.3193C2.54917 15.2624 2.04519 16.5254 2.05659 17.8363C2.06798 19.1473 2.59382 20.4014 3.52086 21.3284C4.4479 22.2555 5.70197 22.7813 7.01295 22.7927C8.32393 22.8041 9.58694 22.3001 10.53 21.3893L12.24 19.6793" stroke="white" stroke-width="2" stroke-linecap="round" stroke-linejoin="round"/>
</svg>
