<svg width="24" height="25" viewBox="0 0 24 25" fill="none" xmlns="http://www.w3.org/2000/svg">
<path d="M10 16.8594H14M8.8 22.8594H15.2C16.8802 22.8594 17.7202 22.8594 18.362 22.5324C18.9265 22.2448 19.3854 21.7858 19.673 21.2213C20 20.5796 20 19.7395 20 18.0594V7.65938C20 5.97922 20 5.13914 19.673 4.4974C19.3854 3.93292 18.9265 3.47398 18.362 3.18636C17.7202 2.85938 16.8802 2.85938 15.2 2.85938H8.8C7.11984 2.85938 6.27976 2.85938 5.63803 3.18636C5.07354 3.47398 4.6146 3.93292 4.32698 4.4974C4 5.13914 4 5.97922 4 7.65938V18.0594C4 19.7395 4 20.5796 4.32698 21.2213C4.6146 21.7858 5.07354 22.2448 5.63803 22.5324C6.27976 22.8594 7.11984 22.8594 8.8 22.8594ZM15 9.85938C15 11.5162 13.6569 12.8594 12 12.8594C10.3431 12.8594 9 11.5162 9 9.85938C9 8.20252 10.3431 6.85938 12 6.85938C13.6569 6.85938 15 8.20252 15 9.85938Z" stroke="white" stroke-width="2" stroke-linecap="round" stroke-linejoin="round"/>
</svg>
