<svg width="24" height="25" viewBox="0 0 24 25" fill="none" xmlns="http://www.w3.org/2000/svg">
<mask id="mask0_22265_536" style="mask-type:luminance" maskUnits="userSpaceOnUse" x="2" y="2" width="21" height="21">
<path d="M3 2.85938H22V21.8594H3V2.85938Z" fill="white" stroke="white" stroke-width="1.6"/>
</mask>
<g mask="url(#mask0_22265_536)">
<path d="M12.4995 9.44009C10.8872 9.44009 9.5802 10.7471 9.5802 12.3594C9.5802 13.9716 10.8872 15.2786 12.4995 15.2786C14.1117 15.2786 15.4188 13.9716 15.4188 12.3594C15.4188 10.7471 14.1117 9.44009 12.4995 9.44009ZM20.6933 10.2762L19.9029 10.9268C19.0013 11.6691 19.0013 13.0496 19.9029 13.7919L20.6933 14.4425C20.9734 14.6731 21.0457 15.0724 20.8643 15.3866L19.3036 18.0899C19.1222 18.4041 18.7402 18.5411 18.4005 18.4138L17.4418 18.0547C16.3482 17.645 15.1526 18.3352 14.9606 19.4872L14.7923 20.497C14.7327 20.8549 14.423 21.1172 14.0602 21.1172H10.9387C10.576 21.1172 10.2663 20.8549 10.2067 20.497L10.0384 19.4872C9.84639 18.3352 8.65076 17.645 7.55719 18.0547L6.5985 18.4138C6.25873 18.5411 5.87676 18.4041 5.69533 18.0899L4.13463 15.3866C3.95323 15.0724 4.02556 14.6731 4.30566 14.4425L5.09609 13.7919C5.99766 13.0496 5.99766 11.6691 5.09609 10.9268L4.30566 10.2762C4.02556 10.0456 3.95323 9.64627 4.13463 9.33207L5.69533 6.62883C5.87676 6.31463 6.25873 6.17762 6.5985 6.30491L7.55719 6.66405C8.65076 7.07374 9.84639 6.38347 10.0384 5.23156L10.2067 4.2217C10.2663 3.86385 10.576 3.60156 10.9387 3.60156H14.0602C14.423 3.60156 14.7327 3.86385 14.7923 4.2217L14.9606 5.23156C15.1526 6.38347 16.3482 7.07374 17.4418 6.66405L18.4005 6.30491C18.7402 6.17762 19.1222 6.31463 19.3036 6.62883L20.8643 9.33207C21.0457 9.64627 20.9734 10.0456 20.6933 10.2762Z" stroke="white" stroke-width="1.6" stroke-miterlimit="10" stroke-linecap="round" stroke-linejoin="round"/>
</g>
</svg>
