<svg width="24" height="25" viewBox="0 0 24 25" fill="none" xmlns="http://www.w3.org/2000/svg">
<path d="M4.45181 20.5099L4.02448 21.414H4.02448L4.45181 20.5099ZM4.45181 12.2088L4.87913 13.1129H4.87913L4.45181 12.2088ZM5.16145 12.0689L5.32291 11.082L5.16145 12.0689ZM5.82324 12.4881L6.64648 11.9204L5.82324 12.4881ZM5.16145 20.6498L5.32291 21.6367L5.16145 20.6498ZM5.82324 20.2306L5 19.6629L5 19.6629L5.82324 20.2306ZM19.5482 20.5099L19.9755 21.414H19.9755L19.5482 20.5099ZM19.5482 12.2088L19.1209 13.1129L19.5482 12.2088ZM18.8385 12.0689L18.6771 11.082L18.8385 12.0689ZM18.1768 12.4881L17.3535 11.9204L18.1768 12.4881ZM18.8385 20.6498L18.6771 21.6367L18.8385 20.6498ZM18.1768 20.2306L19 19.6629L19 19.6629L18.1768 20.2306ZM4.87913 19.6058C3.82028 19.1053 3 17.8769 3 16.3594H1C1 18.5774 2.20266 20.5529 4.02448 21.414L4.87913 19.6058ZM3 16.3594C3 14.8419 3.82028 13.6134 4.87913 13.1129L4.02448 11.3047C2.20266 12.1658 1 14.1413 1 16.3594H3ZM7 19.2594V13.4594H5V19.2594H7ZM4.87913 13.1129C4.91372 13.0966 4.94024 13.0841 4.96454 13.0729C4.98834 13.0619 5.00507 13.0546 5.01769 13.0493C5.0426 13.0389 5.04152 13.041 5.02624 13.0447C5.00753 13.0492 4.98772 13.0514 4.97291 13.0517C4.96133 13.0518 4.96718 13.0504 5 13.0558L5.32291 11.082C5.07017 11.0407 4.82137 11.0368 4.55775 11.1003C4.33251 11.1546 4.13367 11.2531 4.02448 11.3047L4.87913 13.1129ZM7 13.4594C7 13.053 7.03089 12.4779 6.64648 11.9204L5 13.0558C5.00148 13.058 4.99561 13.0494 4.98989 13.0342C4.98464 13.0203 4.98568 13.017 4.98841 13.0357C4.99166 13.0579 4.99548 13.0979 4.99768 13.1722C4.99991 13.2478 5 13.3361 5 13.4594H7ZM5 13.0558C4.98319 13.0531 4.96992 13.0501 4.96052 13.0478C4.95105 13.0454 4.94414 13.0433 4.93994 13.042C4.932 13.0395 4.93041 13.0385 4.93516 13.0405C4.93961 13.0425 4.94725 13.0461 4.95754 13.0516C4.96771 13.0571 4.97891 13.0636 4.99044 13.0709C5.00198 13.0782 5.01265 13.0855 5.02194 13.0924C5.03133 13.0993 5.03785 13.1047 5.0415 13.1079C5.04541 13.1113 5.04385 13.1103 5.03816 13.1042C5.03515 13.101 5.03031 13.0956 5.02413 13.0881C5.01801 13.0806 5.00967 13.0698 5 13.0558L6.64648 11.9204C6.47686 11.6744 6.23578 11.4923 6.06065 11.3813C5.88552 11.2704 5.61778 11.1303 5.32291 11.082L5 13.0558ZM4.02448 21.414C4.13368 21.4656 4.33251 21.5642 4.55775 21.6184C4.82137 21.682 5.07017 21.6781 5.32291 21.6367L5 19.6629C4.96718 19.6683 4.96134 19.6669 4.97291 19.6671C4.98772 19.6673 5.00753 19.6696 5.02624 19.6741C5.04152 19.6778 5.0426 19.6798 5.01769 19.6694C5.00507 19.6642 4.98834 19.6568 4.96454 19.6459C4.94024 19.6347 4.91372 19.6222 4.87913 19.6058L4.02448 21.414ZM5 19.2594C5 19.3827 4.99991 19.471 4.99768 19.5466C4.99548 19.6208 4.99166 19.6608 4.98841 19.683C4.98568 19.7017 4.98464 19.6985 4.98989 19.6845C4.99561 19.6694 5.00148 19.6608 5 19.6629L6.64648 20.7983C7.03089 20.2409 7 19.6658 7 19.2594H5ZM5.32291 21.6367C5.61778 21.5885 5.88552 21.4484 6.06065 21.3374C6.23578 21.2265 6.47686 21.0443 6.64648 20.7983L5 19.6629C5.00967 19.6489 5.01801 19.6382 5.02413 19.6307C5.03031 19.6231 5.03514 19.6178 5.03816 19.6145C5.04385 19.6084 5.04541 19.6074 5.0415 19.6108C5.03785 19.614 5.03133 19.6194 5.02194 19.6263C5.01265 19.6332 5.00198 19.6405 4.99044 19.6478C4.97891 19.6552 4.96771 19.6617 4.95754 19.6671C4.94725 19.6727 4.93961 19.6763 4.93517 19.6782C4.93041 19.6803 4.932 19.6793 4.93994 19.6768C4.94414 19.6754 4.95105 19.6733 4.96052 19.671C4.96992 19.6686 4.98319 19.6657 5 19.6629L5.32291 21.6367ZM19.9755 21.414C21.7973 20.5529 23 18.5774 23 16.3594H21C21 17.8769 20.1797 19.1053 19.1209 19.6058L19.9755 21.414ZM23 16.3594C23 14.1413 21.7973 12.1658 19.9755 11.3047L19.1209 13.1129C20.1797 13.6134 21 14.8419 21 16.3594H23ZM19 19.2594V13.4594H17V19.2594H19ZM19.9755 11.3047C19.8663 11.2531 19.6675 11.1546 19.4423 11.1003C19.1786 11.0368 18.9298 11.0407 18.6771 11.082L19 13.0558C19.0328 13.0504 19.0387 13.0518 19.0271 13.0517C19.0123 13.0514 18.9925 13.0492 18.9738 13.0447C18.9585 13.041 18.9574 13.0389 18.9823 13.0493C18.9949 13.0546 19.0117 13.0619 19.0355 13.0729C19.0598 13.0841 19.0863 13.0966 19.1209 13.1129L19.9755 11.3047ZM19 13.4594C19 13.3361 19.0001 13.2478 19.0023 13.1722C19.0045 13.0979 19.0083 13.0579 19.0116 13.0357C19.0143 13.017 19.0154 13.0203 19.0101 13.0342C19.0044 13.0494 18.9985 13.058 19 13.0558L17.3535 11.9204C16.9691 12.4779 17 13.053 17 13.4594H19ZM18.6771 11.082C18.3822 11.1303 18.1145 11.2704 17.9394 11.3813C17.7642 11.4923 17.5231 11.6744 17.3535 11.9204L19 13.0558C18.9903 13.0698 18.982 13.0806 18.9759 13.0881C18.9697 13.0956 18.9649 13.101 18.9618 13.1042C18.9561 13.1103 18.9546 13.1113 18.9585 13.1079C18.9621 13.1047 18.9687 13.0993 18.9781 13.0924C18.9874 13.0855 18.998 13.0782 19.0096 13.0709C19.0211 13.0636 19.0323 13.0571 19.0425 13.0516C19.0527 13.0461 19.0604 13.0425 19.0648 13.0405C19.0696 13.0385 19.068 13.0395 19.0601 13.042C19.0559 13.0433 19.049 13.0454 19.0395 13.0478C19.0301 13.0501 19.0168 13.0531 19 13.0558L18.6771 11.082ZM19.1209 19.6058C19.0863 19.6222 19.0598 19.6347 19.0355 19.6459C19.0117 19.6568 18.9949 19.6642 18.9823 19.6694C18.9574 19.6798 18.9585 19.6778 18.9738 19.6741C18.9925 19.6696 19.0123 19.6673 19.0271 19.6671C19.0387 19.6669 19.0328 19.6683 19 19.6629L18.6771 21.6367C18.9298 21.6781 19.1786 21.682 19.4423 21.6184C19.6675 21.5642 19.8663 21.4656 19.9755 21.414L19.1209 19.6058ZM17 19.2594C17 19.6658 16.9691 20.2409 17.3535 20.7983L19 19.6629C18.9985 19.6608 19.0044 19.6694 19.0101 19.6845C19.0154 19.6985 19.0143 19.7017 19.0116 19.683C19.0083 19.6608 19.0045 19.6208 19.0023 19.5466C19.0001 19.471 19 19.3827 19 19.2594H17ZM19 19.6629C19.0168 19.6657 19.0301 19.6686 19.0395 19.671C19.049 19.6733 19.0559 19.6754 19.0601 19.6768C19.068 19.6793 19.0696 19.6803 19.0648 19.6782C19.0604 19.6763 19.0527 19.6727 19.0425 19.6671C19.0323 19.6617 19.0211 19.6552 19.0096 19.6478C18.998 19.6405 18.9874 19.6332 18.9781 19.6263C18.9687 19.6194 18.9621 19.614 18.9585 19.6108C18.9546 19.6074 18.9562 19.6084 18.9618 19.6145C18.9649 19.6178 18.9697 19.6231 18.9759 19.6307C18.982 19.6382 18.9903 19.6489 19 19.6629L17.3535 20.7983C17.5231 21.0443 17.7642 21.2265 17.9394 21.3374C18.1145 21.4484 18.3822 21.5885 18.6771 21.6367L19 19.6629ZM5 12.8594C5 8.99338 8.13401 5.85938 12 5.85938V3.85938C7.02944 3.85938 3 7.88881 3 12.8594H5ZM12 5.85938C15.866 5.85938 19 8.99338 19 12.8594H21C21 7.88881 16.9706 3.85938 12 3.85938V5.85938Z" fill="white"/>
</svg>
