<svg width="64" height="64" viewBox="0 0 64 64" fill="none" xmlns="http://www.w3.org/2000/svg">
<mask id="path-1-outside-1_3109_2448" maskUnits="userSpaceOnUse" x="4.65076" y="4.6665" width="55" height="55" fill="black">
<rect fill="white" x="4.65076" y="4.6665" width="55" height="55"/>
<path fill-rule="evenodd" clip-rule="evenodd" d="M47.9405 46.218C51.3048 42.4446 53.3493 37.469 53.3493 32.0158C53.3493 20.2249 43.7909 10.6665 32 10.6665C20.2092 10.6665 10.6508 20.2249 10.6508 32.0158C10.6508 43.8067 20.2092 53.3651 32 53.3651C36.056 53.3651 39.8477 52.2341 43.0771 50.2702L49.0862 51.5592L47.9405 46.218Z"/>
</mask>
<path d="M47.9405 46.218L43.9596 42.6687L42.158 44.6895L42.7258 47.3366L47.9405 46.218ZM43.0771 50.2702L44.1957 45.0555L42.1199 44.6102L40.306 45.7133L43.0771 50.2702ZM49.0862 51.5592L47.9676 56.7739L56.0304 58.5034L54.3009 50.4406L49.0862 51.5592ZM48.016 32.0158C48.016 36.1102 46.4866 39.8345 43.9596 42.6687L51.9213 49.7673C56.123 45.0547 58.6827 38.8278 58.6827 32.0158H48.016ZM32 15.9998C40.8454 15.9998 48.016 23.1704 48.016 32.0158H58.6827C58.6827 17.2794 46.7364 5.33317 32 5.33317V15.9998ZM15.9841 32.0158C15.9841 23.1704 23.1547 15.9998 32 15.9998V5.33317C17.2636 5.33317 5.31742 17.2794 5.31742 32.0158H15.9841ZM32 48.0317C23.1547 48.0317 15.9841 40.8612 15.9841 32.0158H5.31742C5.31742 46.7522 17.2636 58.6984 32 58.6984V48.0317ZM40.306 45.7133C37.888 47.1837 35.0512 48.0317 32 48.0317V58.6984C37.0607 58.6984 41.8074 57.2844 45.8483 54.8271L40.306 45.7133ZM41.9585 55.4849L47.9676 56.7739L50.2048 46.3445L44.1957 45.0555L41.9585 55.4849ZM54.3009 50.4406L53.1552 45.0994L42.7258 47.3366L43.8715 52.6778L54.3009 50.4406Z" fill="black" mask="url(#path-1-outside-1_3109_2448)"/>
</svg>
