<svg width="64" height="64" viewBox="0 0 64 64" fill="none" xmlns="http://www.w3.org/2000/svg">
<path fill-rule="evenodd" clip-rule="evenodd" d="M52.4876 14.3634C47.9089 9.43463 40.5725 9.43463 35.9938 14.3634L35.9074 14.4564C33.7975 16.7277 30.2024 16.7277 28.0925 14.4564L28.0061 14.3634C23.4274 9.43463 16.091 9.43463 11.5123 14.3634C6.82919 19.4045 6.82919 27.6535 11.5123 32.6946L32 54.7488L52.4876 32.6946C57.1707 27.6535 57.1707 19.4045 52.4876 14.3634ZM32.0864 10.7335C38.775 3.53349 49.7065 3.53349 56.3951 10.7335C62.9794 17.8212 62.9794 29.2369 56.3951 36.3245L35.9074 58.3787C33.7975 60.6499 30.2024 60.6499 28.0925 58.3787L7.60481 36.3245C1.02056 29.2369 1.02056 17.8212 7.60481 10.7335C14.2934 3.53349 25.2249 3.53349 31.9136 10.7335L32 10.8265L32.0864 10.7335Z" fill="black"/>
</svg>
